<?xml version="1.0" encoding="utf-8"?>
<!-- Generator: Adobe Illustrator 24.3.0, SVG Export Plug-In . SVG Version: 6.00 Build 0)  -->
<svg version="1.1" id="Layer_1" xmlns="http://www.w3.org/2000/svg" xmlns:xlink="http://www.w3.org/1999/xlink" x="0px" y="0px"
	 viewBox="0 0 141.5 73.2" style="enable-background:new 0 0 141.5 73.2;" xml:space="preserve">
<style type="text/css">
	.st0{fill:#2F2F2F;}
	.st1{fill:#B21A81;}
	.st2{fill:#FFFFFF;}
	.st3{fill:#3C3E3D;}
	.st4{fill:#31BFC3;}
	.st5{opacity:0.25;}
	.st6{fill:#808080;}
	.st7{fill:none;stroke:#808080;stroke-width:0.3983;stroke-miterlimit:10;}
	.st8{fill:#93B48E;}
	.st9{opacity:0.88;fill:none;stroke:#93B48E;stroke-width:0.914;stroke-miterlimit:10;}
	.st10{fill:#E9A036;}
	.st11{fill:#A95A21;}
	.st12{fill:none;stroke:#DE001C;stroke-width:0.4874;stroke-miterlimit:10;}
	.st13{fill:#1C816E;}
	.st14{fill:#5BB9A4;}
	.st15{fill:#122D24;}
	.st16{fill:#175929;}
	.st17{fill:#80BC27;}
	.st18{fill:#7FBA28;}
	.st19{fill:#7FB829;}
	.st20{fill:#80BC28;}
	.st21{fill:#80BC2A;}
	.st22{fill:#3C7651;}
	.st23{fill:#3B7550;}
	.st24{fill:#80AA94;}
	.st25{fill:#FAFCFC;}
	.st26{fill:#25524A;}
	.st27{fill:#A9A01F;}
	.st28{fill:#23995B;}
	.st29{fill:#1D4479;}
	.st30{fill:none;stroke:#262728;stroke-width:1.0774;stroke-miterlimit:10;}
	.st31{fill:#28378C;}
	.st32{fill:#40A6E2;}
	.st33{fill:#FCCE1C;}
	.st34{fill:none;stroke:#737373;stroke-width:1.11;stroke-miterlimit:10;}
	.st35{fill:#00B9D7;}
	.st36{fill:none;stroke:#FFFFFF;stroke-width:1.5619;stroke-miterlimit:10;}
	.st37{fill:#2B3A3B;}
	.st38{fill:none;stroke:#6E1215;stroke-width:0.6419;stroke-miterlimit:10;}
	.st39{fill:none;stroke:#6E1215;stroke-width:0.4466;stroke-miterlimit:10;}
	.st40{opacity:0.88;fill:none;stroke:#93B48E;stroke-width:0.5596;stroke-miterlimit:10;}
	.st41{fill:none;stroke:#FFFFFF;stroke-width:0.9404;stroke-miterlimit:10;}
	.st42{fill:none;stroke:#737373;stroke-width:0.5012;stroke-miterlimit:10;}
	.st43{fill:none;stroke:#FFFFFF;stroke-width:1.3888;stroke-miterlimit:10;}
	.st44{fill:none;stroke:#737373;stroke-width:0.7403;stroke-miterlimit:10;}
	.st45{fill:none;stroke:#23995B;stroke-width:0.6635;stroke-miterlimit:10;}
	.st46{fill:none;stroke:#23995B;stroke-width:0.3962;stroke-miterlimit:10;}
	.st47{fill:none;stroke:#28378C;stroke-width:2;stroke-miterlimit:10;}
	.st48{fill:none;stroke:#28378C;stroke-width:1.0909;stroke-miterlimit:10;}
	.st49{fill:#96AFCE;}
	.st50{fill:#3B3888;}
	.st51{fill:none;stroke:#DE001C;stroke-width:0.451;stroke-miterlimit:10;}
	.st52{fill:none;stroke:#DE001C;stroke-width:0.1983;stroke-miterlimit:10;}
	.st53{fill:none;stroke:#DE001C;stroke-width:0.3536;stroke-miterlimit:10;}
	.st54{fill:none;stroke:#808080;stroke-width:0.3418;stroke-miterlimit:10;}
	.st55{fill:none;stroke:#808080;stroke-width:0.2279;stroke-miterlimit:10;}
	.st56{fill:#37B2B5;}
	.st57{fill:#000100;}
	.st58{fill:none;stroke:#C85119;stroke-width:0.8469;stroke-miterlimit:10;}
	.st59{fill:#C85119;}
	.st60{fill:#1A1718;}
	.st61{fill:none;stroke:#96AFCE;stroke-width:0.5236;stroke-miterlimit:10;}
	.st62{fill:#F2F3F1;}
	.st63{fill:#F2F3F2;}
	.st64{fill:#F1F6F2;}
	.st65{fill:#EFF2F0;}
	.st66{fill:#DFE8E2;}
	.st67{fill:#EDF0EC;}
	.st68{fill:none;stroke:#808080;stroke-width:0.736;stroke-miterlimit:10;}
	.st69{fill:none;stroke:#25524A;stroke-width:1.193;stroke-miterlimit:10;}
	.st70{fill:#3CA835;}
	.st71{fill:#020201;}
	.st72{fill:#37B2B5;stroke:#37B2B5;stroke-width:0.6822;stroke-miterlimit:10;}
	.st73{fill:#737373;}
	.st74{fill:#0B4485;}
	.st75{fill:none;stroke:#262728;stroke-width:1.1895;stroke-miterlimit:10;}
	.st76{fill:#6E1215;}
	.st77{opacity:0.88;}
	.st78{fill:#DE001C;}
	.st79{fill:#DF001B;}
	.st80{fill:#020201;stroke:#FFFFFF;stroke-width:0.5409;stroke-miterlimit:10;}
	.st81{fill:#DF001B;stroke:#FFFFFF;stroke-width:0.5409;stroke-miterlimit:10;}
	.st82{fill:#FFFFFF;stroke:#FFFFFF;stroke-width:2;stroke-miterlimit:10;}
	.st83{fill:#23985B;}
	.st84{fill:#262728;}
	.st85{fill:none;stroke:#FFFFFF;stroke-width:1.6144;stroke-miterlimit:10;}
	.st86{fill:none;stroke:#737373;stroke-width:0.7652;stroke-miterlimit:10;}
	.st87{fill:none;stroke:#808080;stroke-width:0.3675;stroke-miterlimit:10;}
	.st88{fill:none;stroke:#40A6E2;stroke-width:1.408;stroke-miterlimit:10;}
	.st89{fill:#DF001B;stroke:#FFFFFF;stroke-width:0.4562;stroke-miterlimit:10;}
	.st90{fill:#1A1818;}
</style>
<g>
	<g>
		<path class="st73" d="M8.9,59.9H3.8l-0.9,2.6H1.2l4.3-11.7h1.8l4.2,11.7H9.8L8.9,59.9z M8.5,58.7l-2.1-5.9l-2.1,5.9H8.5z"/>
		<path class="st73" d="M23.7,53.3v9.3h-1.5v-1.4c-0.3,0.5-0.7,0.8-1.2,1.1s-1.1,0.4-1.7,0.4c-0.7,0-1.4-0.1-1.9-0.4
			c-0.6-0.3-1-0.7-1.4-1.3s-0.5-1.3-0.5-2.2v-5.4h1.5v5.2c0,0.9,0.2,1.6,0.7,2.1c0.5,0.5,1.1,0.7,1.9,0.7c0.8,0,1.5-0.3,1.9-0.8
			c0.5-0.5,0.7-1.2,0.7-2.2v-5.1H23.7z"/>
		<path class="st73" d="M34.4,53.7c0.6,0.3,1,0.8,1.3,1.3v-1.7h1.6v9.5c0,0.8-0.2,1.6-0.5,2.3c-0.4,0.7-0.9,1.2-1.5,1.5
			c-0.7,0.4-1.4,0.6-2.3,0.6c-1.2,0-2.2-0.3-3-0.9c-0.8-0.6-1.3-1.4-1.4-2.3h1.5c0.2,0.6,0.5,1,1,1.4s1.2,0.5,1.9,0.5
			c0.8,0,1.5-0.3,2.1-0.8c0.5-0.5,0.8-1.3,0.8-2.2v-1.9c-0.3,0.5-0.8,1-1.4,1.4s-1.3,0.5-2.1,0.5c-0.8,0-1.6-0.2-2.2-0.6
			s-1.2-1-1.6-1.7c-0.4-0.7-0.6-1.6-0.6-2.5c0-0.9,0.2-1.8,0.6-2.5c0.4-0.7,0.9-1.3,1.6-1.7c0.7-0.4,1.4-0.6,2.2-0.6
			C33.1,53.1,33.8,53.3,34.4,53.7z M35.3,56.1c-0.3-0.5-0.7-0.9-1.1-1.2c-0.5-0.3-1-0.4-1.6-0.4c-0.6,0-1.1,0.1-1.6,0.4
			c-0.5,0.3-0.9,0.7-1.1,1.2c-0.3,0.5-0.4,1.1-0.4,1.8c0,0.7,0.1,1.3,0.4,1.8c0.3,0.5,0.7,0.9,1.1,1.2c0.5,0.3,1,0.4,1.6,0.4
			c0.6,0,1.1-0.1,1.6-0.4c0.5-0.3,0.9-0.7,1.1-1.2s0.4-1.1,0.4-1.8C35.7,57.2,35.6,56.6,35.3,56.1z"/>
		<path class="st73" d="M50.3,53.3v9.3h-1.5v-1.4c-0.3,0.5-0.7,0.8-1.2,1.1s-1.1,0.4-1.7,0.4c-0.7,0-1.4-0.1-1.9-0.4
			c-0.6-0.3-1-0.7-1.4-1.3S42,59.6,42,58.7v-5.4h1.5v5.2c0,0.9,0.2,1.6,0.7,2.1c0.5,0.5,1.1,0.7,1.9,0.7c0.8,0,1.5-0.3,1.9-0.8
			c0.5-0.5,0.7-1.2,0.7-2.2v-5.1H50.3z"/>
		<path class="st73" d="M56.4,62.3c-0.6-0.2-1-0.6-1.3-1c-0.3-0.4-0.5-0.9-0.5-1.5h1.6c0,0.5,0.3,0.8,0.6,1.1
			c0.4,0.3,0.9,0.4,1.5,0.4c0.6,0,1-0.1,1.4-0.4c0.3-0.3,0.5-0.6,0.5-1c0-0.4-0.2-0.7-0.5-0.9c-0.4-0.2-0.9-0.4-1.7-0.6
			c-0.7-0.2-1.2-0.4-1.7-0.5c-0.4-0.2-0.8-0.5-1.1-0.8c-0.3-0.4-0.5-0.8-0.5-1.4c0-0.5,0.1-0.9,0.4-1.3c0.3-0.4,0.7-0.7,1.2-0.9
			c0.5-0.2,1.1-0.3,1.8-0.3c1,0,1.9,0.3,2.5,0.8c0.6,0.5,1,1.2,1,2.1h-1.5c0-0.5-0.2-0.9-0.6-1.2c-0.4-0.3-0.8-0.4-1.4-0.4
			c-0.6,0-1,0.1-1.3,0.4c-0.3,0.2-0.5,0.5-0.5,0.9c0,0.3,0.1,0.6,0.3,0.8c0.2,0.2,0.4,0.4,0.7,0.5s0.7,0.3,1.2,0.4
			c0.7,0.2,1.2,0.4,1.6,0.5c0.4,0.2,0.8,0.4,1.1,0.8c0.3,0.3,0.5,0.8,0.5,1.4c0,0.5-0.1,1-0.4,1.4s-0.7,0.7-1.2,1
			c-0.5,0.2-1.1,0.3-1.8,0.3C57.6,62.7,57,62.6,56.4,62.3z"/>
		<path class="st73" d="M67.9,54.6V60c0,0.5,0.1,0.8,0.3,1c0.2,0.2,0.5,0.3,1,0.3h1.1v1.3H69c-0.9,0-1.5-0.2-1.9-0.6
			c-0.4-0.4-0.6-1-0.6-1.9v-5.5h-1.2v-1.3h1.2V51h1.5v2.3h2.4v1.3H67.9z"/>
		<path class="st73" d="M81.8,51.8c0.6-1.1,1.7-1.6,3.3-1.6c1.6,0,2.7,0.5,3.3,1.6c0.6,1.1,0.9,2.6,0.9,4.5c0,2-0.3,3.5-0.9,4.6
			s-1.7,1.6-3.3,1.6c-1.6,0-2.7-0.5-3.3-1.6c-0.6-1.1-0.9-2.6-0.9-4.6C80.8,54.4,81.1,52.9,81.8,51.8z M87.6,53.8
			c-0.1-0.7-0.4-1.2-0.8-1.6s-1-0.6-1.7-0.6c-0.8,0-1.3,0.2-1.7,0.6s-0.7,1-0.8,1.6s-0.2,1.5-0.2,2.5c0,1,0.1,1.9,0.2,2.5
			c0.1,0.7,0.4,1.2,0.8,1.7c0.4,0.4,1,0.6,1.7,0.6c0.8,0,1.3-0.2,1.7-0.6c0.4-0.4,0.7-1,0.8-1.7c0.1-0.7,0.2-1.5,0.2-2.5
			C87.8,55.3,87.7,54.5,87.6,53.8z"/>
		<path class="st73" d="M98.1,51.4c-1,0-1.8,0.4-2.2,1.2c-0.5,0.8-0.7,2-0.7,3.8c0.3-0.6,0.7-1,1.3-1.4c0.6-0.3,1.3-0.5,2-0.5
			c1.2,0,2.1,0.4,2.8,1.1s1,1.7,1,3c0,0.8-0.1,1.5-0.4,2.1c-0.3,0.6-0.7,1.1-1.4,1.5c-0.6,0.4-1.3,0.5-2.2,0.5
			c-1.2,0-2.1-0.3-2.7-0.8c-0.7-0.5-1.1-1.2-1.4-2.1c-0.3-0.9-0.4-2-0.4-3.4c0-4.1,1.4-6.2,4.3-6.2c1.1,0,2,0.3,2.6,0.9
			c0.6,0.6,1,1.4,1.1,2.3h-1.4C100.1,52,99.4,51.4,98.1,51.4z M96.7,56.1c-0.4,0.2-0.8,0.5-1,0.9c-0.3,0.4-0.4,0.9-0.4,1.5
			c0,0.9,0.2,1.6,0.7,2.1c0.5,0.5,1.2,0.8,2.1,0.8c0.8,0,1.4-0.2,1.9-0.7c0.5-0.5,0.7-1.2,0.7-2c0-0.9-0.2-1.6-0.7-2.1
			c-0.5-0.5-1.1-0.8-2-0.8C97.6,55.8,97.2,55.9,96.7,56.1z"/>
		<path class="st73" d="M113.2,55.7V57h-6.7v-1.3H113.2z"/>
		<path class="st73" d="M118.9,51.8c0.6-1.1,1.7-1.6,3.3-1.6c1.6,0,2.7,0.5,3.3,1.6c0.6,1.1,0.9,2.6,0.9,4.5c0,2-0.3,3.5-0.9,4.6
			s-1.7,1.6-3.3,1.6c-1.6,0-2.7-0.5-3.3-1.6c-0.6-1.1-0.9-2.6-0.9-4.6C118,54.4,118.3,52.9,118.9,51.8z M124.8,53.8
			c-0.1-0.7-0.4-1.2-0.8-1.6s-1-0.6-1.7-0.6c-0.8,0-1.3,0.2-1.7,0.6s-0.7,1-0.8,1.6s-0.2,1.5-0.2,2.5c0,1,0.1,1.9,0.2,2.5
			c0.1,0.7,0.4,1.2,0.8,1.7c0.4,0.4,1,0.6,1.7,0.6c0.8,0,1.3-0.2,1.7-0.6c0.4-0.4,0.7-1,0.8-1.7c0.1-0.7,0.2-1.5,0.2-2.5
			C124.9,55.3,124.9,54.5,124.8,53.8z"/>
		<path class="st73" d="M138.3,51.5l-4.7,11H132l4.8-10.9h-6.5v-1.3h8V51.5z"/>
	</g>
	<g>
		<path class="st35" d="M35.9,14.8c0,0,5.4-1.1,9-0.1c3.6,1,5.6,2.4,6.9,4.5l-0.2-1.7l4.9-3.7c0,0-1.8-2.6-4.1-4l0-2
			c0,0-4.5-3.5-11.3-2.9l-1.1,1.8c0,0-3.1-0.1-5.5,1.8l2.3,5L35.9,14.8z"/>
	</g>
	<g>
		<path class="st2" d="M39,13.3c1.8-0.9,3.9-1.2,6-0.8c2,0.5,3.8,1.7,5,3.3c-1.7-1.1-3.4-2-5.2-2.4C43,13,41,13.1,39,13.3z"/>
	</g>
	<g>
		<path class="st35" d="M2.4,16c6.5,5.9,16.8,4.6,24.2,2.7c8.2-3,19.6-5.3,25.7,2.8c0,0-1.6,1.2-1.6,1.2c-4-5.4-11.1-5.4-17.1-3.9
			c-2.1,0.5-4.2,1.2-6.3,1.9c-4.4,1.1-8.9,2-13.5,1.8c-4.6-0.1-9.4-1.6-13-4.8C0.8,17.8,2.4,16,2.4,16L2.4,16z"/>
	</g>
	<g>
		<g>
			<rect x="44.5" y="8.2" transform="matrix(0.2306 -0.973 0.973 0.2306 26.8922 51.7361)" class="st2" width="3.3" height="1.4"/>
		</g>
		<g>
			<rect x="45.5" y="7.1" transform="matrix(0.2308 -0.973 0.973 0.2308 26.8857 51.7329)" class="st2" width="1.4" height="3.5"/>
		</g>
	</g>
	<g>
		<path class="st35" d="M16.8,40.7h-3.2l-7.3-11v11H3.1v-16h3.2l7.3,11V21.3h3.2V40.7z"/>
	</g>
	<g>
		<rect x="2" y="45" class="st73" width="136.5" height="0.7"/>
	</g>
	<g>
		<path class="st35" d="M40.6,25.6l-4,15.4h-4.5l-2.5-10.1l-2.5,10.1h-4.5l-3.9-15.4h4l2.2,11.2l2.7-11.2h4.1l2.6,11.2l2.2-11.2
			H40.6z"/>
		<path class="st35" d="M52.7,30.4c-0.3-0.5-0.7-0.9-1.2-1.2s-1.1-0.4-1.8-0.4c-1.2,0-2.2,0.4-2.9,1.2c-0.7,0.8-1.1,1.9-1.1,3.2
			c0,1.4,0.4,2.5,1.1,3.3c0.8,0.8,1.8,1.2,3.2,1.2c0.9,0,1.7-0.2,2.3-0.7c0.6-0.5,1.1-1.1,1.4-2H49v-2.8h8.1v3.5
			c-0.3,0.9-0.7,1.8-1.4,2.6c-0.7,0.8-1.5,1.5-2.5,1.9c-1,0.5-2.2,0.7-3.5,0.7c-1.5,0-2.9-0.3-4.1-1c-1.2-0.7-2.1-1.6-2.8-2.8
			c-0.7-1.2-1-2.5-1-4c0-1.5,0.3-2.9,1-4.1c0.7-1.2,1.6-2.1,2.8-2.8c1.2-0.7,2.5-1,4-1c1.8,0,3.4,0.4,4.6,1.3
			c1.3,0.9,2.1,2.1,2.5,3.7H52.7z"/>
		<path class="st35" d="M59.6,29.2c0.7-1.2,1.6-2.1,2.7-2.8c1.2-0.7,2.5-1,4-1c1.8,0,3.4,0.5,4.7,1.4c1.3,1,2.2,2.3,2.6,3.9h-4.1
			c-0.3-0.6-0.7-1.1-1.3-1.5c-0.6-0.3-1.2-0.5-1.9-0.5c-1.2,0-2.1,0.4-2.8,1.2c-0.7,0.8-1.1,1.9-1.1,3.2c0,1.3,0.4,2.4,1.1,3.2
			c0.7,0.8,1.6,1.2,2.8,1.2c0.7,0,1.4-0.2,1.9-0.5c0.6-0.3,1-0.8,1.3-1.5h4.1c-0.4,1.7-1.3,3-2.6,3.9c-1.3,1-2.9,1.4-4.7,1.4
			c-1.5,0-2.8-0.3-4-1c-1.2-0.7-2.1-1.6-2.7-2.8c-0.7-1.2-1-2.5-1-4C58.6,31.7,58.9,30.3,59.6,29.2z"/>
		<path class="st35" d="M85.3,31.7v3.1h-9.6v-3.1H85.3z"/>
		<path class="st35" d="M88.7,37.4c1.4-1.2,2.6-2.2,3.4-2.9c0.8-0.8,1.5-1.6,2.1-2.4c0.6-0.8,0.9-1.6,0.9-2.4c0-0.6-0.1-1.1-0.4-1.4
			s-0.7-0.5-1.2-0.5c-0.6,0-1,0.2-1.3,0.6c-0.3,0.4-0.5,1-0.5,1.8H88c0-1.2,0.3-2.3,0.8-3.1c0.5-0.8,1.2-1.4,2-1.8
			c0.8-0.4,1.7-0.6,2.7-0.6c1.7,0,3,0.4,3.9,1.3c0.9,0.9,1.3,2,1.3,3.5c0,1.6-0.5,3-1.6,4.3c-1.1,1.3-2.4,2.6-4.1,3.9H99v3h-11v-2.8
			C88.6,37.5,88.8,37.3,88.7,37.4z"/>
		<path class="st35" d="M102.1,26.8c1-1.4,2.5-2.2,4.7-2.2c2.2,0,3.7,0.7,4.7,2.2c1,1.4,1.5,3.4,1.5,5.9c0,2.5-0.5,4.5-1.5,6
			c-1,1.4-2.5,2.2-4.7,2.2c-2.2,0-3.7-0.7-4.7-2.2c-1-1.4-1.5-3.4-1.5-6C100.7,30.2,101.2,28.2,102.1,26.8z M108.8,29.3
			c-0.3-0.8-1-1.2-2-1.2c-1,0-1.7,0.4-2,1.2c-0.3,0.8-0.5,1.9-0.5,3.4c0,1,0.1,1.8,0.2,2.5c0.1,0.6,0.4,1.2,0.7,1.6
			c0.4,0.4,0.9,0.6,1.6,0.6s1.2-0.2,1.6-0.6c0.4-0.4,0.6-0.9,0.7-1.6c0.1-0.6,0.2-1.5,0.2-2.5C109.3,31.2,109.1,30.1,108.8,29.3z"/>
		<path class="st35" d="M115.5,37.4c1.4-1.2,2.6-2.2,3.4-2.9c0.8-0.8,1.5-1.6,2.1-2.4c0.6-0.8,0.9-1.6,0.9-2.4
			c0-0.6-0.1-1.1-0.4-1.4s-0.7-0.5-1.2-0.5c-0.6,0-1,0.2-1.3,0.6c-0.3,0.4-0.5,1-0.5,1.8h-3.6c0-1.2,0.3-2.3,0.8-3.1
			c0.5-0.8,1.2-1.4,2-1.8c0.8-0.4,1.7-0.6,2.7-0.6c1.7,0,3,0.4,3.9,1.3c0.9,0.9,1.3,2,1.3,3.5c0,1.6-0.5,3-1.6,4.3
			c-1.1,1.3-2.4,2.6-4.1,3.9h5.9v3h-11v-2.8C115.3,37.5,115.5,37.3,115.5,37.4z"/>
		<path class="st35" d="M134.7,28c-0.3-0.3-0.7-0.4-1.2-0.4c-0.8,0-1.4,0.4-1.8,1.1c-0.4,0.7-0.6,1.9-0.6,3.4
			c0.3-0.5,0.8-0.9,1.4-1.2c0.6-0.3,1.3-0.4,2-0.4c1.4,0,2.6,0.5,3.4,1.4c0.9,0.9,1.3,2.2,1.3,3.8c0,1.1-0.2,2-0.6,2.8
			c-0.4,0.8-1.1,1.4-1.9,1.9c-0.8,0.5-1.8,0.7-2.9,0.7c-2.2,0-3.8-0.7-4.7-2.1s-1.3-3.4-1.3-6.1c0-2.8,0.5-4.8,1.4-6.2
			c0.9-1.3,2.4-2,4.5-2c1.1,0,2,0.2,2.8,0.6c0.8,0.4,1.3,1,1.7,1.7c0.4,0.7,0.6,1.5,0.7,2.3h-3.5C135.2,28.7,135,28.3,134.7,28z
			 M132.1,34c-0.4,0.4-0.6,0.9-0.6,1.6c0,0.7,0.2,1.2,0.6,1.6c0.4,0.4,0.9,0.6,1.7,0.6c0.6,0,1.1-0.2,1.5-0.6
			c0.4-0.4,0.6-0.9,0.6-1.6c0-0.7-0.2-1.2-0.5-1.6c-0.4-0.4-0.9-0.6-1.6-0.6C133,33.5,132.5,33.6,132.1,34z"/>
	</g>
</g>
</svg>
