<svg id="Layer_1" data-name="Layer 1" xmlns="http://www.w3.org/2000/svg" viewBox="0 0 144.2 65"><defs><style>.cls-1{fill:#c85119;}.cls-2{fill:#1a1718;}</style></defs><path class="cls-1" d="M3.41,7.87v-1c.49,0,1.22,0,2.2,0H10c1,0,1.71,0,2.19,0a20.24,20.24,0,0,1,6,.66,10.25,10.25,0,0,1,5.31,4A11.29,11.29,0,0,1,25.44,18a10.46,10.46,0,0,1-3,7.81,10.79,10.79,0,0,1-7.88,2.95H3.41v-1c.68,0,1.17,0,1.46-.09a3.38,3.38,0,0,0,1-.32,1.28,1.28,0,0,0,.69-.77A4.6,4.6,0,0,0,6.7,25.1V10.49a4.7,4.7,0,0,0-.18-1.43,1.27,1.27,0,0,0-.69-.78,3.11,3.11,0,0,0-1-.31A12.63,12.63,0,0,0,3.41,7.87ZM10,8V24c0,1.58.24,2.57.74,3a5.31,5.31,0,0,0,3.13.62,7.82,7.82,0,0,0,3.64-.79,5.86,5.86,0,0,0,2.4-2.16,10.44,10.44,0,0,0,1.26-3.05,15.19,15.19,0,0,0,.41-3.68q0-4.83-2.28-7.42t-7-2.59C11.54,7.9,10.77,7.93,10,8Z"/><path class="cls-1" d="M41.62,19.22h9.51v1h-.49c-1.59,0-2.39.69-2.39,2.07v4.86A26.06,26.06,0,0,0,44,28.31a16,16,0,0,1-4.78,1,10.36,10.36,0,0,1-7.68-3.09,10.52,10.52,0,0,1-3.05-7.71,12.57,12.57,0,0,1,3.14-8.61,10.28,10.28,0,0,1,8.12-3.57,10.62,10.62,0,0,1,6.63,2.14,6.13,6.13,0,0,0,.72-1.58h.92l.2,7.45H47.13a8.71,8.71,0,0,0-2.38-5,6.55,6.55,0,0,0-4.87-2,6.88,6.88,0,0,0-3.71,1,6.3,6.3,0,0,0-2.35,2.63,14,14,0,0,0-1.15,3.43,19.89,19.89,0,0,0-.34,3.8,14.55,14.55,0,0,0,.41,3.42A12.26,12.26,0,0,0,34,24.74a6.5,6.5,0,0,0,2.28,2.38,6.11,6.11,0,0,0,3.31.9A9,9,0,0,0,43,27.21Q45,26.42,45,25.29v-3a1.84,1.84,0,0,0-.62-1.64,3.42,3.42,0,0,0-1.94-.43h-.78Z"/><path class="cls-1" d="M73.06,6.88l.29,7.91h-1q-1.82-7.32-7.91-7.32A6.42,6.42,0,0,0,61,8.39a6.78,6.78,0,0,0-2.35,2.41A12,12,0,0,0,57.39,14,14.88,14.88,0,0,0,57,17.55a14.74,14.74,0,0,0,.78,4.91,8.24,8.24,0,0,0,2.68,3.72,7.19,7.19,0,0,0,4.64,1.51,8.44,8.44,0,0,0,4.78-1.53,8.21,8.21,0,0,0,3.2-3.82l1.18.89a9.57,9.57,0,0,1-4,4.46,11.62,11.62,0,0,1-6,1.64,10.56,10.56,0,0,1-7.94-3.18,11.13,11.13,0,0,1-3.09-8.08,11.88,11.88,0,0,1,3.12-8.33,10.32,10.32,0,0,1,8-3.42,12.41,12.41,0,0,1,7.12,2.24,10,10,0,0,0,.72-1.68Z"/><path class="cls-1" d="M81.49,20.83v1.61h-7V20.83Z"/><path class="cls-1" d="M96.16,23.82l-1.24,4.92H82.18l.3-1.35q2-1.66,3.53-3.15a40.6,40.6,0,0,0,3.18-3.49,16.85,16.85,0,0,0,2.58-4.25,11.65,11.65,0,0,0,.92-4.43A4.61,4.61,0,0,0,91.54,9a3.65,3.65,0,0,0-2.89-1.33,4.1,4.1,0,0,0-3,1.15,3.88,3.88,0,0,0-.68,4.8,2.74,2.74,0,0,0,1.43,1.27,1.39,1.39,0,0,1-1.48.82,1.77,1.77,0,0,1-1.64-1,4.73,4.73,0,0,1-.56-2.23,4.93,4.93,0,0,1,1.78-4,6.33,6.33,0,0,1,4.26-1.51,6.82,6.82,0,0,1,4.7,1.73,5.73,5.73,0,0,1,1.93,4.47,8.19,8.19,0,0,1-.37,2.43,14.57,14.57,0,0,1-.86,2.15,11.66,11.66,0,0,1-1.47,2.1c-.67.77-1.22,1.39-1.65,1.84a22.14,22.14,0,0,1-2,1.77c-.9.73-1.53,1.23-1.89,1.51L85.3,26.35h7.78a1.93,1.93,0,0,0,.75-.14,1.32,1.32,0,0,0,.58-.46,6.28,6.28,0,0,0,.38-.55c.08-.16.19-.4.32-.73a6.62,6.62,0,0,1,.3-.65Z"/><path class="cls-1" d="M104.47,29.1q-3.31,0-5.32-3.64A14.7,14.7,0,0,1,97.48,18a17.85,17.85,0,0,1,.36-3.53A18.5,18.5,0,0,1,99,10.92,7.16,7.16,0,0,1,101.15,8a5.56,5.56,0,0,1,6.67,0A7.05,7.05,0,0,1,110,10.9a17.47,17.47,0,0,1,1.12,3.56,17.63,17.63,0,0,1,0,7.09A17.27,17.27,0,0,1,110,25.11,7.15,7.15,0,0,1,107.82,28,5.36,5.36,0,0,1,104.47,29.1Zm0-.82a2.67,2.67,0,0,0,2.21-1.21A7.55,7.55,0,0,0,108,23.92a32,32,0,0,0,.47-3.3c.08-.91.12-1.8.12-2.68s0-1.76-.12-2.67A32,32,0,0,0,108,12a7.55,7.55,0,0,0-1.27-3.15,2.68,2.68,0,0,0-2.21-1.22,2.44,2.44,0,0,0-1.87.87,5.8,5.8,0,0,0-1.2,2.06,16.63,16.63,0,0,0-.66,2.77,25.88,25.88,0,0,0-.29,2.62c0,.69,0,1.37,0,2s0,1.33,0,2a26,26,0,0,0,.29,2.63,16.87,16.87,0,0,0,.66,2.77,5.75,5.75,0,0,0,1.2,2.05A2.44,2.44,0,0,0,104.47,28.28Z"/><path class="cls-1" d="M126.82,23.82l-1.25,4.92H112.84l.29-1.35c1.34-1.11,2.51-2.16,3.53-3.15a39,39,0,0,0,3.18-3.49,16.56,16.56,0,0,0,2.58-4.25,11.65,11.65,0,0,0,.92-4.43A4.57,4.57,0,0,0,122.19,9a3.65,3.65,0,0,0-2.89-1.33,4.11,4.11,0,0,0-3,1.15,3.8,3.8,0,0,0-1.22,2.88,3.69,3.69,0,0,0,.55,1.92,2.72,2.72,0,0,0,1.42,1.27c-.19.54-.69.82-1.47.82a1.76,1.76,0,0,1-1.64-1,4.61,4.61,0,0,1-.56-2.23,5,5,0,0,1,1.77-4,6.34,6.34,0,0,1,4.27-1.51,6.82,6.82,0,0,1,4.69,1.73,5.74,5.74,0,0,1,1.94,4.47,8.21,8.21,0,0,1-.38,2.43,14.6,14.6,0,0,1-.85,2.15,11.28,11.28,0,0,1-1.48,2.1c-.67.77-1.22,1.39-1.64,1.84a24.15,24.15,0,0,1-2,1.77c-.9.73-1.52,1.23-1.89,1.51L116,26.35h7.78a2,2,0,0,0,.76-.14,1.25,1.25,0,0,0,.57-.46,4.65,4.65,0,0,0,.38-.55,6.21,6.21,0,0,0,.33-.73c.13-.32.23-.54.29-.65Z"/><path class="cls-1" d="M131.51,16.33a6,6,0,0,1,8.67.5,7.56,7.56,0,0,1,1.7,4.89,8,8,0,0,1-1.77,5.2,5.83,5.83,0,0,1-4.76,2.18,6.36,6.36,0,0,1-3.2-.8A5.82,5.82,0,0,1,130,26.13a11.11,11.11,0,0,1-1.18-2.94,13.58,13.58,0,0,1-.4-3.28,18.39,18.39,0,0,1,.56-4.48,17.13,17.13,0,0,1,1.66-4.17,8.71,8.71,0,0,1,3-3.15,7.88,7.88,0,0,1,4.3-1.19,5.8,5.8,0,0,1,2.35.47A1.62,1.62,0,0,1,141.36,9a1.24,1.24,0,0,1-.31.84,1,1,0,0,1-.81.34,1.29,1.29,0,0,1-1.06-.62c-.3-.42-.62-.84-1-1.27a1.72,1.72,0,0,0-1.28-.67,3.75,3.75,0,0,0-3,1.63,9.8,9.8,0,0,0-1.81,3.51A16.14,16.14,0,0,0,131.51,16.33Zm7.62,5.39a13.74,13.74,0,0,0-.28-2.79,5.49,5.49,0,0,0-1.22-2.43,3,3,0,0,0-2.41-1.12,3,3,0,0,0-2.31,1,5.13,5.13,0,0,0-1.28,2.23,9.69,9.69,0,0,0-.35,2.59,14.51,14.51,0,0,0,.17,2.2,13.62,13.62,0,0,0,.55,2.25,4.19,4.19,0,0,0,1.25,1.89,3.06,3.06,0,0,0,2,.72,3,3,0,0,0,2-.66,3.85,3.85,0,0,0,1.18-1.72A12.18,12.18,0,0,0,139,23.8,12.79,12.79,0,0,0,139.13,21.72Z"/><path class="cls-2" d="M12.08,57.27l-4.89-13H7.11c0,.27,0,.63.07,1.06s0,.9.05,1.4,0,1,0,1.55v9H5.52V42.41H8.29l4.58,12.18H13l4.66-12.18h2.75V57.27H18.51V48.14c0-.49,0-1,0-1.45s0-.93.06-1.35.05-.78.06-1.07h-.08l-5,13Z"/><path class="cls-2" d="M34.2,57.27l-1.79-4.6H26.52l-1.77,4.6H22.86l5.8-14.92h1.69l5.79,14.92Zm-4-10.76c0-.11-.11-.31-.2-.6s-.2-.59-.29-.9-.16-.56-.21-.72c-.07.27-.15.56-.22.84l-.23.78c-.08.24-.14.44-.2.6L27.14,51h4.71Z"/><path class="cls-2" d="M42.75,42.41a8.5,8.5,0,0,1,3,.47,3.49,3.49,0,0,1,1.78,1.41,4.36,4.36,0,0,1,.58,2.35,4.09,4.09,0,0,1-.43,2,3.77,3.77,0,0,1-1.12,1.25,5.83,5.83,0,0,1-1.42.74l4.08,6.66H47.08l-3.6-6.14H40.53v6.14H38.65V42.41ZM42.65,44H40.53v5.51h2.22a4,4,0,0,0,2.64-.72,2.61,2.61,0,0,0,.84-2.11,2.77,2.77,0,0,0-.39-1.56,2.18,2.18,0,0,0-1.17-.85A6.37,6.37,0,0,0,42.65,44Z"/><path class="cls-2" d="M58.44,43.85a5.44,5.44,0,0,0-2.14.41,4.25,4.25,0,0,0-1.62,1.18,5.17,5.17,0,0,0-1,1.9,8.07,8.07,0,0,0-.36,2.5A8.19,8.19,0,0,0,53.87,53a4.53,4.53,0,0,0,1.71,2.08,5.21,5.21,0,0,0,2.84.73,9.94,9.94,0,0,0,1.85-.17A15.25,15.25,0,0,0,62,55.25v1.63a9.08,9.08,0,0,1-1.72.46,14.12,14.12,0,0,1-2.11.14,7.08,7.08,0,0,1-3.79-.94,5.7,5.7,0,0,1-2.27-2.66,9.94,9.94,0,0,1-.76-4.06,9.71,9.71,0,0,1,.46-3.08,6.91,6.91,0,0,1,1.38-2.41,6.06,6.06,0,0,1,2.23-1.57,7.92,7.92,0,0,1,3.06-.55,10,10,0,0,1,2.21.23,7.63,7.63,0,0,1,1.89.64l-.75,1.58a11.22,11.22,0,0,0-1.53-.56A6.3,6.3,0,0,0,58.44,43.85Z"/><path class="cls-2" d="M77.07,57.27H75.19V50.34H67.58v6.93H65.71V42.41h1.87V48.7h7.61V42.41h1.88Z"/><path class="cls-2" d="M96.36,49.82a17.4,17.4,0,0,1-.27,3.23,7.22,7.22,0,0,1-.87,2.4A4,4,0,0,1,93.68,57a4.62,4.62,0,0,1-2.27.52,4.11,4.11,0,0,1-2.76-.92A5.42,5.42,0,0,1,87,53.93a14.1,14.1,0,0,1-.53-4.11A15.35,15.35,0,0,1,87,45.7a5.14,5.14,0,0,1,1.57-2.61,4.35,4.35,0,0,1,2.86-.9,4.22,4.22,0,0,1,2.76.9,5.31,5.31,0,0,1,1.65,2.61A13.77,13.77,0,0,1,96.36,49.82Zm-8,0a16,16,0,0,0,.3,3.39,4,4,0,0,0,1,2,2.44,2.44,0,0,0,1.8.68,2.46,2.46,0,0,0,1.8-.67,4,4,0,0,0,1-2,15.48,15.48,0,0,0,.32-3.41,15.13,15.13,0,0,0-.32-3.38,4.07,4.07,0,0,0-1-2,2.46,2.46,0,0,0-1.8-.67,2.43,2.43,0,0,0-1.8.67,4,4,0,0,0-1,2A15.89,15.89,0,0,0,88.33,49.82Z"/><path class="cls-2" d="M100.69,57.27l6.09-13.19h-8V42.41h10v1.42l-6,13.44Z"/><path class="cls-2" d="M111.07,52.51V50.88h5v1.63Z"/><path class="cls-2" d="M128.3,49.82a17.4,17.4,0,0,1-.27,3.23,7.45,7.45,0,0,1-.86,2.4A4.13,4.13,0,0,1,125.63,57a4.66,4.66,0,0,1-2.28.52,4.11,4.11,0,0,1-2.76-.92A5.34,5.34,0,0,1,119,53.93a13.77,13.77,0,0,1-.53-4.11,15,15,0,0,1,.49-4.12,5.08,5.08,0,0,1,1.57-2.61,4.31,4.31,0,0,1,2.85-.9,4.25,4.25,0,0,1,2.77.9,5.37,5.37,0,0,1,1.64,2.61A13.77,13.77,0,0,1,128.3,49.82Zm-8,0a16,16,0,0,0,.3,3.39,4,4,0,0,0,1,2,2.74,2.74,0,0,0,3.6,0,4.07,4.07,0,0,0,1-2,16.19,16.19,0,0,0,.31-3.41,15.82,15.82,0,0,0-.31-3.38,4.16,4.16,0,0,0-1-2,2.75,2.75,0,0,0-3.6,0,4.07,4.07,0,0,0-1,2A15.89,15.89,0,0,0,120.27,49.82Z"/><path class="cls-2" d="M135.73,42.21a6.15,6.15,0,0,1,2.31.4,3.47,3.47,0,0,1,1.57,1.2,3.27,3.27,0,0,1,.57,2,3.16,3.16,0,0,1-.38,1.56,4.22,4.22,0,0,1-1,1.17,8.84,8.84,0,0,1-1.42.91,10.79,10.79,0,0,1,1.67,1,4.4,4.4,0,0,1,1.19,1.29,3.22,3.22,0,0,1,.45,1.74,3.83,3.83,0,0,1-.6,2.16,3.94,3.94,0,0,1-1.7,1.4,6.17,6.17,0,0,1-2.57.5,6.81,6.81,0,0,1-2.71-.48,3.62,3.62,0,0,1-1.69-1.36,3.91,3.91,0,0,1-.57-2.16,3.55,3.55,0,0,1,.42-1.76,4.38,4.38,0,0,1,1.14-1.29,8.1,8.1,0,0,1,1.52-.92,7.17,7.17,0,0,1-1.32-.95,4,4,0,0,1-.94-1.21,3.57,3.57,0,0,1-.34-1.61,3.11,3.11,0,0,1,.58-1.92,3.77,3.77,0,0,1,1.58-1.2A6,6,0,0,1,135.73,42.21Zm-3.12,11.3a2.34,2.34,0,0,0,.77,1.8,4.23,4.23,0,0,0,4.69,0,2.4,2.4,0,0,0,.8-1.87,2.24,2.24,0,0,0-.38-1.28,3.75,3.75,0,0,0-1.09-1,8.46,8.46,0,0,0-1.65-.8l-.33-.12a7.82,7.82,0,0,0-1.54.85,3.42,3.42,0,0,0-.95,1A2.82,2.82,0,0,0,132.61,53.51Zm3.1-9.83a3,3,0,0,0-1.88.56,1.83,1.83,0,0,0-.74,1.59,2.23,2.23,0,0,0,.36,1.29,3,3,0,0,0,1,.88,14.55,14.55,0,0,0,1.37.7,8.31,8.31,0,0,0,1.3-.69,3.16,3.16,0,0,0,.92-.9,2.31,2.31,0,0,0,.34-1.28,1.84,1.84,0,0,0-.73-1.59A3.1,3.1,0,0,0,135.71,43.68Z"/><rect class="cls-1" x="3.07" y="35.85" width="139.26" height="0.85"/></svg>