<?xml version="1.0" encoding="UTF-8"?>
<svg id="Layer_1" data-name="Layer 1" xmlns="http://www.w3.org/2000/svg" viewBox="0 0 210 86">
  <defs>
    <style>
      .cls-1 {
        font-size: 20.06px;
        letter-spacing: -.02em;
      }

      .cls-2 {
        fill: #00b9d7;
      }

      .cls-2, .cls-3 {
        stroke-width: 0px;
      }

      .cls-4 {
        stroke: #737373;
        stroke-width: 1.37px;
      }

      .cls-4, .cls-5 {
        fill: none;
        stroke-miterlimit: 10;
      }

      .cls-6 {
        font-family: Poppins-Bold, Poppins;
        font-size: 20.4px;
        font-weight: 700;
      }

      .cls-6, .cls-7 {
        fill: #737373;
      }

      .cls-8 {
        font-size: 23.15px;
      }

      .cls-7 {
        font-family: Poppins-Light, Poppins;
        font-weight: 300;
      }

      .cls-5 {
        stroke: #fff;
        stroke-width: 1.92px;
      }

      .cls-3 {
        fill: #fff;
      }
    </style>
  </defs>
  <text class="cls-7" transform="translate(154.42 54.31)"><tspan class="cls-8"><tspan x="0" y="0">JUNE</tspan></tspan><tspan class="cls-1"><tspan x="0" y="24.08">20-23</tspan></tspan></text>
  <line class="cls-4" x1="146.41" y1="36.56" x2="146.41" y2="78.82"/>
  <g>
    <path class="cls-2" d="M60.55,17.67s8.7-1.74,14.41-.09c5.71,1.65,8.95,3.87,11.06,7.3l-.38-2.73,7.89-5.89s-2.89-4.19-6.54-6.47v-3.16s-7.16-5.55-18.21-4.72l-1.7,2.82s-4.91-.21-8.89,2.91l3.76,8.02-1.4,2.02Z"/>
    <path class="cls-3" d="M65.61,15.2c5.85-3.03,13.73-1.24,17.7,4.08-5.3-3.84-11.25-5.23-17.7-4.08h0Z"/>
    <path class="cls-2" d="M6.71,19.59c10.4,9.51,26.92,7.37,38.85,4.31,13.18-4.81,31.56-8.56,41.25,4.57,0,0-2.64,1.98-2.64,1.98-6.36-8.63-17.89-8.6-27.44-6.23-3.41.8-6.78,1.89-10.11,3.08-7.05,1.83-14.29,3.15-21.64,2.87-7.46-.24-15.16-2.63-20.82-7.71,0,0,2.55-2.87,2.55-2.87h0Z"/>
    <g>
      <line class="cls-5" x1="77.7" y1="5.46" x2="76.46" y2="10.69"/>
      <line class="cls-5" x1="74.33" y1="7.42" x2="79.82" y2="8.72"/>
    </g>
    <path class="cls-2" d="M20.39,56.93h-3.53l-10.62-16.07v16.07h-3.53v-21.55h3.53l10.62,16.04v-22.45h3.53v27.96Z"/>
    <path class="cls-2" d="M28.54,35.41v13.72c0,1.63.43,2.86,1.29,3.68.86.83,2.05,1.24,3.58,1.24s2.75-.41,3.61-1.24c.86-.83,1.29-2.05,1.29-3.68v-13.72h3.53v13.66c0,1.75-.38,3.24-1.15,4.46-.76,1.22-1.79,2.13-3.07,2.72-1.28.6-2.69.9-4.24.9s-2.96-.3-4.23-.9c-1.27-.6-2.28-1.51-3.02-2.72-.74-1.22-1.11-2.7-1.11-4.46v-13.66h3.53Z"/>
    <path class="cls-2" d="M57.58,56.93l-4.95-8.61h-2.69v8.61h-3.53v-21.52h7.43c1.65,0,3.05.29,4.2.87,1.15.58,2,1.35,2.57,2.32.57.97.85,2.05.85,3.25,0,1.4-.41,2.68-1.22,3.82-.82,1.15-2.07,1.93-3.76,2.34l5.33,8.92h-4.21ZM49.93,45.5h3.9c1.32,0,2.32-.33,2.99-.99.67-.66,1.01-1.55,1.01-2.66s-.33-1.99-.99-2.62c-.66-.63-1.66-.94-3-.94h-3.9v7.22Z"/>
    <path class="cls-2" d="M69.16,56.39c-1.16-.51-2.06-1.22-2.72-2.15-.66-.93-.99-2.01-.99-3.25h3.78c.08.93.45,1.69,1.1,2.29.65.6,1.56.9,2.74.9s2.17-.29,2.85-.88,1.02-1.35,1.02-2.28c0-.72-.21-1.31-.63-1.77-.42-.45-.95-.81-1.58-1.05-.63-.25-1.5-.52-2.62-.81-1.4-.37-2.54-.75-3.42-1.13-.88-.38-1.63-.98-2.25-1.78-.62-.81-.93-1.88-.93-3.22,0-1.24.31-2.32.93-3.25s1.49-1.64,2.6-2.14c1.11-.5,2.4-.74,3.87-.74,2.08,0,3.79.52,5.12,1.56,1.33,1.04,2.07,2.47,2.21,4.29h-3.9c-.06-.78-.43-1.46-1.11-2.01-.68-.56-1.58-.84-2.69-.84-1.01,0-1.84.26-2.48.77-.64.52-.96,1.26-.96,2.23,0,.66.2,1.2.6,1.63.4.42.91.76,1.53,1.01.62.25,1.47.52,2.54.81,1.42.39,2.59.78,3.48,1.18.9.39,1.66,1,2.29,1.81.63.82.94,1.9.94,3.27,0,1.09-.29,2.13-.88,3.1-.59.97-1.45,1.75-2.57,2.34-1.13.59-2.45.88-3.98.88-1.45,0-2.75-.25-3.9-.76Z"/>
    <path class="cls-2" d="M88.21,35.41v21.52h-3.53v-21.52h3.53Z"/>
    <path class="cls-2" d="M110.53,56.93h-3.53l-10.62-16.07v16.07h-3.53v-21.55h3.53l10.62,16.04v-16.04h3.53v21.55Z"/>
    <path class="cls-2" d="M130.75,41.6c-.56-1.07-1.33-1.88-2.32-2.43-.99-.55-2.14-.82-3.44-.82-1.42,0-2.69.32-3.81.96-1.11.64-1.99,1.55-2.62,2.72-.63,1.18-.94,2.54-.94,4.09s.31,2.92.94,4.1c.63,1.19,1.5,2.1,2.62,2.74,1.11.64,2.38.96,3.81.96,1.92,0,3.48-.54,4.68-1.61,1.2-1.07,1.93-2.53,2.2-4.37h-8.08v-2.82h11.86v2.76c-.23,1.67-.82,3.21-1.78,4.61-.96,1.4-2.21,2.52-3.75,3.36-1.54.84-3.25,1.25-5.12,1.25-2.02,0-3.87-.47-5.54-1.41-1.67-.94-3-2.25-3.98-3.92-.98-1.67-1.47-3.56-1.47-5.67s.49-3.99,1.47-5.67c.98-1.67,2.31-2.98,3.99-3.92,1.68-.94,3.53-1.41,5.53-1.41,2.29,0,4.33.56,6.12,1.69,1.79,1.13,3.08,2.72,3.89,4.78h-4.24Z"/>
  </g>
  <text class="cls-6" transform="translate(.47 78.1)"><tspan x="0" y="0">CONFERENCE</tspan></text>
</svg>