<svg id="Layer_1" data-name="Layer 1" xmlns="http://www.w3.org/2000/svg" viewBox="0 0 158.47 65"><defs><style>.cls-1{fill:#1c816e;}.cls-2{fill:#5bb9a4;}.cls-3{fill:#2b3a3b;}.cls-4{fill:#fff;}</style></defs><path class="cls-1" d="M56,38.52a4.45,4.45,0,0,1-1.88,1.78A6.56,6.56,0,0,1,51,41H48.63v5.49H44.91V31.17h6A6.86,6.86,0,0,1,54,31.8a4.35,4.35,0,0,1,1.9,1.74,5.08,5.08,0,0,1,.63,2.55A4.87,4.87,0,0,1,56,38.52Zm-3.71-1a1.87,1.87,0,0,0,.53-1.42,1.85,1.85,0,0,0-.53-1.41,2.2,2.2,0,0,0-1.59-.5h-2V38h2A2.2,2.2,0,0,0,52.25,37.51Z"/><path class="cls-1" d="M68.67,36a2.8,2.8,0,0,0-1.19-1.17,3.85,3.85,0,0,0-1.82-.4,3.72,3.72,0,0,0-2.9,1.19,4.47,4.47,0,0,0-1.09,3.17,4.53,4.53,0,0,0,1.15,3.3A4.17,4.17,0,0,0,66,43.29a3.78,3.78,0,0,0,2.32-.7,3.91,3.91,0,0,0,1.38-2H64.94V37.84h8.11V41.3a7.25,7.25,0,0,1-1.4,2.6,7.52,7.52,0,0,1-2.52,1.94,7.87,7.87,0,0,1-3.45.74,8.14,8.14,0,0,1-4-1,7,7,0,0,1-2.77-2.76,8.1,8.1,0,0,1-1-4,8.21,8.21,0,0,1,1-4A7.13,7.13,0,0,1,61.63,32a8.1,8.1,0,0,1,4-1,7.86,7.86,0,0,1,4.63,1.33A6.3,6.3,0,0,1,72.79,36Z"/><path class="cls-1" d="M75.47,34.75A7.15,7.15,0,0,1,78.21,32a7.94,7.94,0,0,1,4-1,7.6,7.6,0,0,1,4.66,1.44,7,7,0,0,1,2.6,3.93h-4.1a3.4,3.4,0,0,0-1.3-1.47,3.7,3.7,0,0,0-1.91-.5,3.55,3.55,0,0,0-2.79,1.2,4.66,4.66,0,0,0-1.07,3.21A4.65,4.65,0,0,0,79.35,42a3.55,3.55,0,0,0,2.79,1.2,3.7,3.7,0,0,0,1.91-.5,3.31,3.31,0,0,0,1.3-1.46h4.1a6.88,6.88,0,0,1-2.6,3.91,7.66,7.66,0,0,1-4.66,1.43,7.94,7.94,0,0,1-4-1,7.06,7.06,0,0,1-2.74-2.76,8.21,8.21,0,0,1-1-4A8.31,8.31,0,0,1,75.47,34.75Z"/><path class="cls-1" d="M101.11,37.27v3.1H91.52v-3.1Z"/><path class="cls-1" d="M104.55,42.94c1.43-1.18,2.55-2.14,3.37-2.9A13.81,13.81,0,0,0,110,37.66a4.26,4.26,0,0,0,.85-2.42,2.1,2.1,0,0,0-.41-1.39,1.73,1.73,0,0,0-2.54.12,2.87,2.87,0,0,0-.47,1.75h-3.6a6.2,6.2,0,0,1,.8-3.09,4.58,4.58,0,0,1,2-1.83,6.18,6.18,0,0,1,2.74-.59,5.26,5.26,0,0,1,3.91,1.33A4.69,4.69,0,0,1,114.58,35,6.8,6.8,0,0,1,113,39.33a23.27,23.27,0,0,1-4,3.89h5.88v3H103.88V43.48C104.37,43.09,104.6,42.91,104.55,42.94Z"/><path class="cls-1" d="M117.91,32.39a6.14,6.14,0,0,1,9.35,0,10.46,10.46,0,0,1,1.45,5.91,10.56,10.56,0,0,1-1.45,6,6.14,6.14,0,0,1-9.35,0,10.56,10.56,0,0,1-1.45-6A10.46,10.46,0,0,1,117.91,32.39Zm6.66,2.52a2.25,2.25,0,0,0-4,0,9.38,9.38,0,0,0-.48,3.39,15,15,0,0,0,.17,2.45,3.21,3.21,0,0,0,.71,1.57,2,2,0,0,0,1.58.6,2,2,0,0,0,1.58-.6,3,3,0,0,0,.71-1.57,13.88,13.88,0,0,0,.18-2.45A9.38,9.38,0,0,0,124.57,34.91Z"/><path class="cls-1" d="M131.22,42.94c1.42-1.18,2.54-2.14,3.36-2.9a14.32,14.32,0,0,0,2.09-2.38,4.34,4.34,0,0,0,.85-2.42,2.1,2.1,0,0,0-.42-1.39,1.49,1.49,0,0,0-1.24-.5,1.52,1.52,0,0,0-1.3.62,2.87,2.87,0,0,0-.47,1.75H130.5a6.09,6.09,0,0,1,.79-3.09,4.55,4.55,0,0,1,2-1.83,6.14,6.14,0,0,1,2.73-.59,5.25,5.25,0,0,1,3.91,1.33A4.69,4.69,0,0,1,141.24,35a6.8,6.8,0,0,1-1.59,4.33,23.27,23.27,0,0,1-4.05,3.89h5.88v3H130.54V43.48Z"/><path class="cls-1" d="M154.32,33.8h-6.8v3a3.14,3.14,0,0,1,1.22-.78,5.15,5.15,0,0,1,4.42.43,4.46,4.46,0,0,1,1.58,1.92,6.55,6.55,0,0,1,.5,2.55,5.6,5.6,0,0,1-1.44,4,5.38,5.38,0,0,1-4.05,1.49,7.06,7.06,0,0,1-3-.6,4.63,4.63,0,0,1-2-1.67,4.82,4.82,0,0,1-.76-2.46h3.64a2,2,0,0,0,.63,1.12,2,2,0,0,0,1.38.45,1.8,1.8,0,0,0,1.52-.65,2.78,2.78,0,0,0,.5-1.75,2.3,2.3,0,0,0-.52-1.63,2.3,2.3,0,0,0-2.75-.21,1.68,1.68,0,0,0-.63,1h-3.6V30.53h10.18Z"/><path class="cls-1" d="M14.06,20.14A8.18,8.18,0,1,0,5.78,34.26l12.77,7.5,8.28-14.13ZM18,39.43,6.64,32.79A6.48,6.48,0,0,1,13.2,21.61l11.31,6.64-.77,1.31Z"/><path class="cls-1" d="M26.77,64.06h.06a8.09,8.09,0,0,0,4.78-1.56l.37-.27a8.2,8.2,0,0,0,3-6.36V41.76H18.65V55.88a8,8,0,0,0,.73,3.34,8,8,0,0,0,7.35,4.85Z"/><path class="cls-2" d="M26.47,40.77a1.37,1.37,0,0,0-.07-.16c0-.09-.09-.23-.16-.41a11.87,11.87,0,0,1-.46-1.57A10.88,10.88,0,0,1,26,32.89a10,10,0,0,1,1.93-3.34,13.09,13.09,0,0,1,3.26-2.62,10.39,10.39,0,0,1,4.24-1.41,18.55,18.55,0,0,1,4.49.28,13.84,13.84,0,0,0,4.25.12A9.9,9.9,0,0,0,48,24.4a12.2,12.2,0,0,0,2.9-2.61,12.63,12.63,0,0,0,1.79-3,14.4,14.4,0,0,0,1-5.17,13.93,13.93,0,0,0-.06-1.49c0-.34,0-.53,0-.53s0,.19.06.53.08.84.11,1.49a14.33,14.33,0,0,1-.87,5.26A12.51,12.51,0,0,1,51.16,22a12.68,12.68,0,0,1-2.9,2.8,10.75,10.75,0,0,1-4,1.79,14.64,14.64,0,0,1-4.48.09,17.48,17.48,0,0,0-4.26-.09A9.2,9.2,0,0,0,31.87,28a11.51,11.51,0,0,0-2.8,2.48,8.26,8.26,0,0,0-1.46,2.88,9.07,9.07,0,0,0,.07,4.78,10.25,10.25,0,0,0,.45,1.28c.07.14.11.24.15.31l0,.09Z"/><path class="cls-2" d="M32.15,26.51a29.5,29.5,0,0,0,.4-2.93c.05-.6,0-1.26.07-1.95s0-1.22,0-1.87c1.49-.5,7.2-2.92,3.29-9.52C31.4,2.7,27.45,2.37,27.45,2.37S23.36,4,24.82,11.43s5.08,8,5.08,8,1.53-2.57-.75-11.29c-.36-1.36-.13-1.68.05-1.76a.61.61,0,0,0,.05.12c.2.56.51,1.13.68,1.79s.37,1.35.56,2.07.34,1.24.51,1.87l.42,2.46c.09.86.29,1.7.32,2.55s.05,1.54.08,2.28a13.47,13.47,0,0,1-.05,2.12c-.05.67-.07,1.31-.14,1.89a25.38,25.38,0,0,1-.5,2.77,8.4,8.4,0,0,1-.28,1l1,.31A8.62,8.62,0,0,0,32.15,26.51Z"/><path class="cls-2" d="M46.8,25.31c.17-.28.36-.7.59-1.19.11-.26.2-.54.31-.83a6.24,6.24,0,0,0,.25-.8c.71,0,3.51-.21,2.79-3.6-.82-3.87-2.46-4.58-2.46-4.58s-2,.09-2.43,3.49,1,4.14,1,4.14,1-.88,1.31-4.94c0-.63.19-.74.28-.74s0,0,0,0a8.05,8.05,0,0,1,0,.87q0,.46-.06,1c0,.4,0,.8-.07,1.21l-.12.64c-.12.42-.14.86-.27,1.28l-.29,1a7.47,7.47,0,0,1-.33.91c-.12.28-.22.54-.34.78a12.18,12.18,0,0,1-.61,1.12c-.16.25-.27.4-.27.4l.4.28A3.5,3.5,0,0,0,46.8,25.31Z"/><path class="cls-2" d="M53.62,15c0-.17,0-.34,0-.51a9.21,9.21,0,0,0,0-1.05c0-.3-.05-.6-.08-.9s-.11-.53-.16-.79-.1-.51-.15-.74-.14-.44-.2-.65l0,0c-.06,0-.15.13-.06.62.61,3.12,0,4,0,4s-1.26-.26-1.61-2.91,1.12-3.13,1.12-3.13,1.39.2,2.79,2.95c1.23,2.41-.83,3.14-1.36,3.28Z"/><rect class="cls-3" x="44.64" y="49.29" width="110.92" height="12.58"/><path class="cls-4" d="M50.09,59.14a3.56,3.56,0,0,1-1.37-1.38,4.14,4.14,0,0,1,0-4,3.56,3.56,0,0,1,1.37-1.38A3.82,3.82,0,0,1,52,51.9a3.87,3.87,0,0,1,1.94.5,3.58,3.58,0,0,1,1.36,1.37,4.25,4.25,0,0,1,0,4A3.65,3.65,0,0,1,54,59.14a3.87,3.87,0,0,1-1.94.5A3.82,3.82,0,0,1,50.09,59.14Zm3.35-.73a2.62,2.62,0,0,0,1-1.06,3.67,3.67,0,0,0,0-3.17,2.64,2.64,0,0,0-1-1,3,3,0,0,0-2.87,0,2.64,2.64,0,0,0-1,1,3.58,3.58,0,0,0,0,3.17,2.6,2.6,0,0,0,1,1.06,2.95,2.95,0,0,0,2.86,0Z"/><path class="cls-4" d="M59.07,55a2.66,2.66,0,0,1,1-1.07,3.26,3.26,0,0,1,3.31.15,2.55,2.55,0,0,1,.94,1.48H63.28a1.5,1.5,0,0,0-.59-.86,1.8,1.8,0,0,0-1.09-.31,1.75,1.75,0,0,0-1.37.58,2.36,2.36,0,0,0-.52,1.64,2.39,2.39,0,0,0,.52,1.66,1.73,1.73,0,0,0,1.37.59,1.87,1.87,0,0,0,1.09-.3,1.54,1.54,0,0,0,.59-.87h1.07a2.62,2.62,0,0,1-1,1.46,2.89,2.89,0,0,1-1.79.55,3,3,0,0,1-1.5-.38,2.68,2.68,0,0,1-1-1.08,3.73,3.73,0,0,1,0-3.24Z"/><path class="cls-4" d="M68.82,54.42v3.51a.8.8,0,0,0,.19.61.89.89,0,0,0,.64.18h.72v.84h-.89a1.76,1.76,0,0,1-1.23-.38,1.61,1.61,0,0,1-.42-1.25V54.42h-.77v-.81h.77v-1.5h1v1.5h1.55v.81Z"/><path class="cls-4" d="M74.6,59.28a2.82,2.82,0,0,1-1.06-1.08,3.52,3.52,0,0,1,0-3.24,2.78,2.78,0,0,1,1.08-1.07,3.15,3.15,0,0,1,1.53-.38,3.1,3.1,0,0,1,1.53.38A2.69,2.69,0,0,1,78.77,55a3.19,3.19,0,0,1,.4,1.62,3.11,3.11,0,0,1-.41,1.63,2.92,2.92,0,0,1-1.1,1.08,3.19,3.19,0,0,1-1.54.38A3.12,3.12,0,0,1,74.6,59.28Zm2.52-.74a1.93,1.93,0,0,0,.75-.75,2.73,2.73,0,0,0,0-2.43,1.91,1.91,0,0,0-.74-.75,2.16,2.16,0,0,0-2,0,1.8,1.8,0,0,0-.72.75,2.52,2.52,0,0,0-.28,1.21,2.54,2.54,0,0,0,.27,1.23,1.81,1.81,0,0,0,.71.74,1.93,1.93,0,0,0,1,.25A2.06,2.06,0,0,0,77.12,58.54Z"/><path class="cls-4" d="M84.31,53.85a2.56,2.56,0,0,1,1.33-.34,2.83,2.83,0,0,1,1.45.38,2.74,2.74,0,0,1,1,1.07,3.4,3.4,0,0,1,.37,1.6,3.5,3.5,0,0,1-.37,1.61,2.78,2.78,0,0,1-1,1.1,2.85,2.85,0,0,1-2.79,0,2.18,2.18,0,0,1-.87-.86v1.1h-1v-8h1v3.2A2.26,2.26,0,0,1,84.31,53.85Zm2.87,1.54a1.85,1.85,0,0,0-.73-.76,2.09,2.09,0,0,0-2,0,2,2,0,0,0-.74.78,2.39,2.39,0,0,0-.27,1.16,2.48,2.48,0,0,0,.27,1.18,1.9,1.9,0,0,0,.74.77,2,2,0,0,0,2,0,1.81,1.81,0,0,0,.73-.77,2.38,2.38,0,0,0,.28-1.19A2.3,2.3,0,0,0,87.18,55.39Z"/><path class="cls-4" d="M97.12,57H92.37a1.86,1.86,0,0,0,1.93,1.87,1.82,1.82,0,0,0,1.07-.3,1.61,1.61,0,0,0,.6-.8H97a2.53,2.53,0,0,1-1,1.4,2.88,2.88,0,0,1-1.78.54,3.06,3.06,0,0,1-1.52-.38,2.77,2.77,0,0,1-1-1.08,3.3,3.3,0,0,1-.39-1.63A3.52,3.52,0,0,1,91.72,55a2.65,2.65,0,0,1,1-1.06,3.11,3.11,0,0,1,1.54-.38,3,3,0,0,1,1.5.37,2.52,2.52,0,0,1,1,1,2.92,2.92,0,0,1,.35,1.46C97.15,56.54,97.14,56.74,97.12,57Zm-1.24-1.77a1.57,1.57,0,0,0-.68-.62,2.11,2.11,0,0,0-1-.21,1.85,1.85,0,0,0-1.27.47,2,2,0,0,0-.6,1.33h3.75A1.77,1.77,0,0,0,95.88,55.18Z"/><path class="cls-4" d="M102.14,53.78a2.32,2.32,0,0,1,1.18-.28v1h-.26c-1.11,0-1.66.6-1.66,1.8v3.24h-1v-6h1v1A1.85,1.85,0,0,1,102.14,53.78Z"/><path class="cls-4" d="M111.72,52.64a2.67,2.67,0,0,1,4.24,0,5.78,5.78,0,0,1,.61,2.91,5.94,5.94,0,0,1-.61,3,2.67,2.67,0,0,1-4.24,0,5.94,5.94,0,0,1-.61-3A5.78,5.78,0,0,1,111.72,52.64ZM115.47,54a2.15,2.15,0,0,0-.51-1.06,1.77,1.77,0,0,0-2.24,0,2,2,0,0,0-.51,1.06,9,9,0,0,0-.13,1.6,9.3,9.3,0,0,0,.13,1.64,2,2,0,0,0,.51,1.07,1.77,1.77,0,0,0,2.24,0,2.19,2.19,0,0,0,.51-1.07,9.41,9.41,0,0,0,.12-1.64A9.08,9.08,0,0,0,115.47,54Z"/><path class="cls-4" d="M120.38,54.78a1.82,1.82,0,0,1-.32-1.11,1.89,1.89,0,0,1,.29-1.05,2,2,0,0,1,.87-.75,3.69,3.69,0,0,1,2.82,0,2,2,0,0,1,.87.75,2,2,0,0,1,0,2.16,2.13,2.13,0,0,1-.93.7,2,2,0,0,1,1.07.72,1.94,1.94,0,0,1,.4,1.24,2.17,2.17,0,0,1-1.33,2.05,3.52,3.52,0,0,1-1.46.29,3.47,3.47,0,0,1-1.45-.29,2.19,2.19,0,0,1-1.32-2.05,2,2,0,0,1,.39-1.25,2,2,0,0,1,1.07-.71A2,2,0,0,1,120.38,54.78Zm.94,1.51a1.28,1.28,0,0,0-.52,1.12,1.41,1.41,0,0,0,.5,1.12,2,2,0,0,0,1.33.42,1.94,1.94,0,0,0,1.32-.42,1.4,1.4,0,0,0,.49-1.12,1.28,1.28,0,0,0-.5-1.11,2.06,2.06,0,0,0-1.31-.39A2.14,2.14,0,0,0,121.32,56.29Zm2.5-3.52a1.8,1.8,0,0,0-1.19-.36,1.77,1.77,0,0,0-1.18.36,1.27,1.27,0,0,0-.44,1,1.19,1.19,0,0,0,.45,1,1.76,1.76,0,0,0,1.17.37,1.79,1.79,0,0,0,1.18-.37,1.23,1.23,0,0,0,.45-1A1.25,1.25,0,0,0,123.82,52.77Z"/><path class="cls-4" d="M133,55.16V56h-4.33v-.84Z"/><path class="cls-4" d="M137.23,52.64a2.26,2.26,0,0,1,2.13-1,2.24,2.24,0,0,1,2.12,1,5.78,5.78,0,0,1,.61,2.91,5.94,5.94,0,0,1-.61,3,2.24,2.24,0,0,1-2.12,1.05,2.26,2.26,0,0,1-2.13-1.05,6.06,6.06,0,0,1-.6-3A5.9,5.9,0,0,1,137.23,52.64ZM141,54a2.15,2.15,0,0,0-.51-1.06,1.77,1.77,0,0,0-2.24,0,2,2,0,0,0-.51,1.06,9,9,0,0,0-.13,1.6,9.3,9.3,0,0,0,.13,1.64,2,2,0,0,0,.51,1.07,1.77,1.77,0,0,0,2.24,0,2.19,2.19,0,0,0,.51-1.07,9.41,9.41,0,0,0,.12-1.64A9.08,9.08,0,0,0,141,54Z"/><path class="cls-4" d="M147.18,58.41a1.61,1.61,0,0,0,1.07.33,1.45,1.45,0,0,0,1.33-.7,4.73,4.73,0,0,0,.4-2.38,1.62,1.62,0,0,1-.76.77,2.56,2.56,0,0,1-1.18.27,2.74,2.74,0,0,1-1.3-.3,2.07,2.07,0,0,1-.89-.87,2.75,2.75,0,0,1-.33-1.39,2.6,2.6,0,0,1,.67-1.87,2.49,2.49,0,0,1,1.91-.71,2.33,2.33,0,0,1,2.14,1,5.67,5.67,0,0,1,.61,3,8.93,8.93,0,0,1-.24,2.26,2.56,2.56,0,0,1-.83,1.35,2.49,2.49,0,0,1-1.59.47,2.4,2.4,0,0,1-1.73-.6,2.33,2.33,0,0,1-.7-1.52h.91A1.53,1.53,0,0,0,147.18,58.41Zm2.22-3a1.62,1.62,0,0,0,.46-1.22,1.89,1.89,0,0,0-.45-1.32,1.66,1.66,0,0,0-1.28-.5,1.57,1.57,0,0,0-1.21.48,2,2,0,0,0,0,2.53,1.68,1.68,0,0,0,1.29.48A1.65,1.65,0,0,0,149.4,55.42Z"/></svg>