<svg id="Layer_1" data-name="Layer 1" xmlns="http://www.w3.org/2000/svg" viewBox="0 0 158.47 65"><defs><style>.cls-1{fill:#1c816e;}.cls-2{fill:#5bb9a4;}.cls-3{fill:#2b3a3b;}.cls-4{fill:#fff;}</style></defs><path class="cls-1" d="M55.05,38.43a4.07,4.07,0,0,1-1.71,1.62,6,6,0,0,1-2.85.61h-2.1v5H45V31.74h5.49a6.25,6.25,0,0,1,2.81.57A4,4,0,0,1,55,33.9a4.64,4.64,0,0,1,.57,2.32A4.47,4.47,0,0,1,55.05,38.43Zm-3.37-.92a2,2,0,0,0,0-2.58,2,2,0,0,0-1.45-.45H48.39V38h1.84A2,2,0,0,0,51.68,37.51Z"/><path class="cls-1" d="M67.42,38.43a4.07,4.07,0,0,1-1.71,1.62,6,6,0,0,1-2.85.61h-2.1v5H57.37V31.74h5.49a6.33,6.33,0,0,1,2.82.57A4,4,0,0,1,67.4,33.9,4.64,4.64,0,0,1,68,36.22,4.47,4.47,0,0,1,67.42,38.43Zm-3.37-.92a2,2,0,0,0,0-2.58,2,2,0,0,0-1.45-.45H60.76V38H62.6A2,2,0,0,0,64.05,37.51Z"/><path class="cls-1" d="M80.11,39.72a3.66,3.66,0,0,1-.49,4.92,5.13,5.13,0,0,1-3.4,1H69.74V31.74H76a5.11,5.11,0,0,1,3.32,1,3.22,3.22,0,0,1,1.2,2.64,3.17,3.17,0,0,1-.64,2,3.34,3.34,0,0,1-1.71,1.13A3.23,3.23,0,0,1,80.11,39.72Zm-7-2.35h2.22A1.93,1.93,0,0,0,76.63,37a1.29,1.29,0,0,0,.44-1.08,1.34,1.34,0,0,0-.44-1.09,1.93,1.93,0,0,0-1.28-.37H73.13ZM77,42.53a1.36,1.36,0,0,0,.46-1.12,1.46,1.46,0,0,0-.48-1.15,2,2,0,0,0-1.34-.41H73.13v3.07h2.5A2,2,0,0,0,77,42.53Z"/><path class="cls-1" d="M83.12,35a6.42,6.42,0,0,1,2.49-2.52,7.23,7.23,0,0,1,3.62-.9,6.94,6.94,0,0,1,4.24,1.31,6.27,6.27,0,0,1,2.36,3.57H92.1a3,3,0,0,0-1.18-1.33,3.34,3.34,0,0,0-1.73-.46,3.26,3.26,0,0,0-2.54,1.09,4.22,4.22,0,0,0-1,2.92,4.19,4.19,0,0,0,1,2.91,3.23,3.23,0,0,0,2.54,1.09,3.33,3.33,0,0,0,1.73-.45A3.06,3.06,0,0,0,92.1,40.9h3.73a6.24,6.24,0,0,1-2.36,3.56,7,7,0,0,1-4.24,1.3,7.13,7.13,0,0,1-3.62-.91,6.43,6.43,0,0,1-2.49-2.5,8,8,0,0,1,0-7.35Z"/><path class="cls-1" d="M106.44,37.29v2.82H97.71V37.29Z"/><path class="cls-1" d="M109.57,42.45c1.29-1.08,2.31-2,3.06-2.64a12.5,12.5,0,0,0,1.89-2.16,3.91,3.91,0,0,0,.78-2.2,1.94,1.94,0,0,0-.38-1.27,1.37,1.37,0,0,0-1.13-.46,1.4,1.4,0,0,0-1.18.57,2.61,2.61,0,0,0-.43,1.59h-3.27a5.59,5.59,0,0,1,.73-2.81,4.13,4.13,0,0,1,1.8-1.67,5.82,5.82,0,0,1,2.49-.53,4.8,4.8,0,0,1,3.56,1.21,4.26,4.26,0,0,1,1.2,3.15,6.15,6.15,0,0,1-1.45,3.93,20.92,20.92,0,0,1-3.69,3.54h5.36v2.76H109V42.94Z"/><path class="cls-1" d="M121.71,32.85a5.6,5.6,0,0,1,8.51,0,9.52,9.52,0,0,1,1.31,5.37,9.64,9.64,0,0,1-1.31,5.42,5.6,5.6,0,0,1-8.51,0,9.63,9.63,0,0,1-1.32-5.42A9.52,9.52,0,0,1,121.71,32.85Zm6.06,2.29a2,2,0,0,0-3.61,0,8.56,8.56,0,0,0-.44,3.08,13.46,13.46,0,0,0,.16,2.23,2.83,2.83,0,0,0,.65,1.43,2.15,2.15,0,0,0,2.87,0,2.92,2.92,0,0,0,.65-1.43,13.61,13.61,0,0,0,.15-2.23A8.59,8.59,0,0,0,127.77,35.14Z"/><path class="cls-1" d="M133.81,42.45c1.3-1.08,2.32-2,3.07-2.64a13,13,0,0,0,1.89-2.16,3.89,3.89,0,0,0,.77-2.2,1.94,1.94,0,0,0-.37-1.27,1.56,1.56,0,0,0-2.31.11,2.55,2.55,0,0,0-.43,1.59h-3.27a5.69,5.69,0,0,1,.72-2.81,4.21,4.21,0,0,1,1.81-1.67,5.75,5.75,0,0,1,2.49-.53,4.76,4.76,0,0,1,3.55,1.21,4.26,4.26,0,0,1,1.2,3.15,6.2,6.2,0,0,1-1.44,3.93,21.64,21.64,0,0,1-3.69,3.54h5.35v2.76h-10V42.94Z"/><path class="cls-1" d="M154.83,34.14h-6.19v2.73a3,3,0,0,1,1.11-.71,4.4,4.4,0,0,1,1.55-.28,4.28,4.28,0,0,1,2.47.68,4.06,4.06,0,0,1,1.44,1.74,6,6,0,0,1,.45,2.32,5.05,5.05,0,0,1-1.31,3.68,4.89,4.89,0,0,1-3.68,1.36,6.38,6.38,0,0,1-2.76-.55,4.21,4.21,0,0,1-1.8-1.51,4.36,4.36,0,0,1-.7-2.25h3.31a1.78,1.78,0,0,0,.58,1,1.81,1.81,0,0,0,1.25.4,1.67,1.67,0,0,0,1.39-.59,2.59,2.59,0,0,0,.45-1.59,2.16,2.16,0,0,0-.47-1.49,1.81,1.81,0,0,0-1.39-.51,1.79,1.79,0,0,0-1.11.33,1.48,1.48,0,0,0-.58.86h-3.27V31.16h9.26Z"/><path class="cls-1" d="M14.27,19.57A8.18,8.18,0,1,0,6,33.69l12.78,7.5,8.28-14.13Zm3.9,19.29L6.85,32.22A6.48,6.48,0,0,1,13.41,21l11.31,6.64L24,29Z"/><path class="cls-1" d="M27,63.49H27a8.12,8.12,0,0,0,4.79-1.56l.36-.27a8.2,8.2,0,0,0,3-6.36V41.19H18.86V55.31a8.23,8.23,0,0,0,8.07,8.18Z"/><path class="cls-2" d="M26.68,40.2,26.62,40c0-.09-.1-.23-.17-.41A11.87,11.87,0,0,1,26,38.06a10.79,10.79,0,0,1,.23-5.74A9.81,9.81,0,0,1,28.15,29a12.86,12.86,0,0,1,3.25-2.62A10.48,10.48,0,0,1,35.65,25a18.62,18.62,0,0,1,4.49.28,13.83,13.83,0,0,0,4.25.12,10,10,0,0,0,3.8-1.52,12.15,12.15,0,0,0,2.89-2.61,12.5,12.5,0,0,0,1.79-3,14.1,14.1,0,0,0,1-5.16,13.93,13.93,0,0,0-.06-1.49c0-.35,0-.53,0-.53s0,.19.06.53A13.78,13.78,0,0,1,54,13a14.5,14.5,0,0,1-.86,5.26,12.89,12.89,0,0,1-1.73,3.14,12.63,12.63,0,0,1-2.89,2.8,10.8,10.8,0,0,1-4,1.79,14.64,14.64,0,0,1-4.48.09A17.47,17.47,0,0,0,35.77,26a9.2,9.2,0,0,0-3.69,1.42,11.27,11.27,0,0,0-2.79,2.48,8.3,8.3,0,0,0-1.47,2.88,9,9,0,0,0,.08,4.78,10.25,10.25,0,0,0,.45,1.28l.14.31.05.09Z"/><path class="cls-2" d="M32.36,25.94a29.5,29.5,0,0,0,.4-2.93c.05-.6.05-1.26.07-2a16.93,16.93,0,0,0,0-1.87c1.48-.5,7.19-2.92,3.29-9.52C31.62,2.13,27.66,1.8,27.66,1.8S23.57,3.4,25,10.86s5.08,8,5.08,8,1.52-2.57-.76-11.29c-.35-1.36-.13-1.68.06-1.76a.56.56,0,0,0,0,.12,19.17,19.17,0,0,1,.69,1.79c.18.66.36,1.35.56,2.07s.33,1.24.5,1.87l.42,2.46c.09.86.3,1.7.32,2.55s.06,1.54.08,2.28A13.5,13.5,0,0,1,32,21c0,.67-.08,1.31-.15,1.89a25.38,25.38,0,0,1-.5,2.77,8.4,8.4,0,0,1-.28,1l1.05.31A9.26,9.26,0,0,0,32.36,25.94Z"/><path class="cls-2" d="M47,24.74c.17-.28.36-.7.6-1.19l.31-.83a8.35,8.35,0,0,0,.25-.8c.71,0,3.5-.21,2.78-3.6-.81-3.87-2.46-4.58-2.46-4.58s-2,.09-2.43,3.49,1,4.14,1,4.14,1-.88,1.31-4.94c0-.63.19-.74.28-.74v.05a6.11,6.11,0,0,1,0,.87c0,.31,0,.63-.05,1s0,.8-.08,1.21l-.12.64c-.11.42-.14.86-.27,1.28s-.19.67-.29,1a6.75,6.75,0,0,1-.33.9c-.12.29-.22.55-.33.79-.25.47-.45.87-.62,1.12a4,4,0,0,1-.27.4l.41.28A4.85,4.85,0,0,0,47,24.74Z"/><path class="cls-2" d="M53.84,14.43c0-.17,0-.34,0-.51a9.21,9.21,0,0,0,0-1.05c0-.3-.05-.6-.08-.9s-.1-.53-.16-.79-.1-.51-.15-.74-.14-.45-.2-.65c0,0,0,0,0,0s-.16.13-.06.62c.61,3.11,0,4,0,4s-1.27-.26-1.62-2.91,1.12-3.13,1.12-3.13,1.39.2,2.79,2.95c1.23,2.41-.83,3.14-1.36,3.28Z"/><rect class="cls-3" x="44.86" y="48.72" width="110.92" height="12.58"/><path class="cls-4" d="M50.3,58.57a3.63,3.63,0,0,1-1.37-1.38,4.14,4.14,0,0,1,0-4,3.63,3.63,0,0,1,1.37-1.38,4,4,0,0,1,3.86,0,3.61,3.61,0,0,1,1.37,1.37,4.25,4.25,0,0,1,0,4,3.68,3.68,0,0,1-1.37,1.37,4,4,0,0,1-3.86,0Zm3.35-.73a2.56,2.56,0,0,0,1-1.06,3.58,3.58,0,0,0,0-3.17,2.64,2.64,0,0,0-1-1,3,3,0,0,0-2.87,0,2.64,2.64,0,0,0-1,1,3.58,3.58,0,0,0,0,3.17,2.56,2.56,0,0,0,1,1.06,2.93,2.93,0,0,0,2.85,0Z"/><path class="cls-4" d="M59.28,54.39a2.66,2.66,0,0,1,1-1.07,3.26,3.26,0,0,1,3.31.15A2.5,2.5,0,0,1,64.56,55H63.5a1.51,1.51,0,0,0-.6-.86,1.8,1.8,0,0,0-1.09-.31,1.72,1.72,0,0,0-1.36.58A2.34,2.34,0,0,0,59.92,56a2.4,2.4,0,0,0,.53,1.66,1.7,1.7,0,0,0,1.36.59A1.87,1.87,0,0,0,62.9,58a1.6,1.6,0,0,0,.6-.87h1.06a2.66,2.66,0,0,1-1,1.46,2.92,2.92,0,0,1-1.8.55,3,3,0,0,1-1.5-.38,2.68,2.68,0,0,1-1-1.08,3.73,3.73,0,0,1,0-3.24Z"/><path class="cls-4" d="M69,53.85v3.51a.84.84,0,0,0,.18.61.91.91,0,0,0,.64.18h.73V59H69.7a1.79,1.79,0,0,1-1.24-.38,1.61,1.61,0,0,1-.41-1.25V53.85h-.77V53h.77v-1.5h1V53h1.55v.81Z"/><path class="cls-4" d="M74.82,58.71a2.85,2.85,0,0,1-1.07-1.08A3.41,3.41,0,0,1,73.37,56a3.25,3.25,0,0,1,.39-1.61,2.71,2.71,0,0,1,1.08-1.07,3.29,3.29,0,0,1,3.07,0A2.75,2.75,0,0,1,79,54.38,3.29,3.29,0,0,1,79.38,56a3.2,3.2,0,0,1-.4,1.63,2.88,2.88,0,0,1-1.11,1.08,3.17,3.17,0,0,1-1.54.38A3.05,3.05,0,0,1,74.82,58.71ZM77.33,58a2,2,0,0,0,.76-.75,2.78,2.78,0,0,0,0-2.43,1.84,1.84,0,0,0-.74-.75,2.16,2.16,0,0,0-2,0,1.8,1.8,0,0,0-.72.75A2.52,2.52,0,0,0,74.38,56a2.67,2.67,0,0,0,.26,1.23,1.81,1.81,0,0,0,.71.74,2,2,0,0,0,1,.25A2,2,0,0,0,77.33,58Z"/><path class="cls-4" d="M84.52,53.28a2.59,2.59,0,0,1,1.34-.34,2.82,2.82,0,0,1,1.44.38,2.67,2.67,0,0,1,1,1.07,3.29,3.29,0,0,1,.37,1.6,3.38,3.38,0,0,1-.37,1.61,2.8,2.8,0,0,1-3.81,1.15,2.32,2.32,0,0,1-.87-.86V59h-1V51h1v3.2A2.26,2.26,0,0,1,84.52,53.28Zm2.88,1.54a1.91,1.91,0,0,0-.73-.76,2.09,2.09,0,0,0-1-.26,2,2,0,0,0-1,.26,1.92,1.92,0,0,0-.74.78A2.29,2.29,0,0,0,83.63,56a2.37,2.37,0,0,0,.28,1.18,1.9,1.9,0,0,0,.74.77,1.92,1.92,0,0,0,1,.27,2,2,0,0,0,1-.27,1.94,1.94,0,0,0,.73-.77A2.49,2.49,0,0,0,87.67,56,2.41,2.41,0,0,0,87.4,54.82Z"/><path class="cls-4" d="M97.33,56.38H92.58a1.89,1.89,0,0,0,.6,1.38,1.92,1.92,0,0,0,1.33.49,1.82,1.82,0,0,0,1.07-.3,1.5,1.5,0,0,0,.6-.8h1.07a2.55,2.55,0,0,1-1,1.4,2.88,2.88,0,0,1-1.78.54A3,3,0,0,1,93,58.71a2.73,2.73,0,0,1-1-1.08A3.3,3.3,0,0,1,91.57,56a3.4,3.4,0,0,1,.37-1.62,2.51,2.51,0,0,1,1-1.06,3.11,3.11,0,0,1,1.54-.38,2.93,2.93,0,0,1,1.5.37,2.52,2.52,0,0,1,1,1,2.93,2.93,0,0,1,.36,1.46A4.18,4.18,0,0,1,97.33,56.38ZM96.1,54.61a1.69,1.69,0,0,0-.68-.62,2.17,2.17,0,0,0-1-.21,1.87,1.87,0,0,0-1.28.47,2,2,0,0,0-.6,1.33h3.76A1.86,1.86,0,0,0,96.1,54.61Z"/><path class="cls-4" d="M102.36,53.21a2.27,2.27,0,0,1,1.18-.28v1h-.27c-1.1,0-1.66.6-1.66,1.8V59h-1V53h1v1A1.9,1.9,0,0,1,102.36,53.21Z"/><path class="cls-4" d="M111.93,52.07a2.67,2.67,0,0,1,4.24,0,5.76,5.76,0,0,1,.61,2.91,5.94,5.94,0,0,1-.61,3,2.67,2.67,0,0,1-4.24,0,5.94,5.94,0,0,1-.61-3A5.76,5.76,0,0,1,111.93,52.07Zm3.75,1.31a2,2,0,0,0-.51-1.06,1.47,1.47,0,0,0-1.11-.4,1.48,1.48,0,0,0-1.13.4,2.15,2.15,0,0,0-.51,1.06,9.08,9.08,0,0,0-.12,1.6,9.41,9.41,0,0,0,.12,1.64,2.19,2.19,0,0,0,.51,1.07,1.52,1.52,0,0,0,1.13.4,1.51,1.51,0,0,0,1.11-.4,2,2,0,0,0,.51-1.07,9.3,9.3,0,0,0,.13-1.64A9,9,0,0,0,115.68,53.38Z"/><path class="cls-4" d="M120.59,54.21a1.89,1.89,0,0,1-.32-1.11,1.89,1.89,0,0,1,1.17-1.8,3.12,3.12,0,0,1,1.4-.28,3.2,3.2,0,0,1,1.41.28,2,2,0,0,1,.88.74,2,2,0,0,1,.3,1.06,1.92,1.92,0,0,1-.34,1.11,2,2,0,0,1-.92.7,2,2,0,0,1,1.46,2,2.19,2.19,0,0,1-.34,1.23,2.23,2.23,0,0,1-1,.82,3.52,3.52,0,0,1-1.46.29,3.47,3.47,0,0,1-1.45-.29,2.23,2.23,0,0,1-1-.82,2.19,2.19,0,0,1-.35-1.23,2,2,0,0,1,.39-1.25,2,2,0,0,1,1.07-.71A2.07,2.07,0,0,1,120.59,54.21Zm.94,1.51a1.28,1.28,0,0,0-.51,1.12,1.4,1.4,0,0,0,.49,1.12,2.32,2.32,0,0,0,2.66,0,1.43,1.43,0,0,0,.49-1.12,1.31,1.31,0,0,0-.5-1.11,2.11,2.11,0,0,0-1.32-.39A2.16,2.16,0,0,0,121.53,55.72ZM124,52.2a1.83,1.83,0,0,0-1.2-.36,1.79,1.79,0,0,0-1.18.36,1.27,1.27,0,0,0-.44,1,1.19,1.19,0,0,0,.45,1,2.05,2.05,0,0,0,2.35,0,1.23,1.23,0,0,0,.45-1A1.25,1.25,0,0,0,124,52.2Z"/><path class="cls-4" d="M133.19,54.59v.84h-4.33v-.84Z"/><path class="cls-4" d="M137.45,52.07a2.67,2.67,0,0,1,4.24,0A5.76,5.76,0,0,1,142.3,55a5.94,5.94,0,0,1-.61,3,2.67,2.67,0,0,1-4.24,0,5.94,5.94,0,0,1-.61-3A5.76,5.76,0,0,1,137.45,52.07Zm3.75,1.31a2,2,0,0,0-.51-1.06,1.47,1.47,0,0,0-1.11-.4,1.48,1.48,0,0,0-1.13.4,2.07,2.07,0,0,0-.51,1.06,9.08,9.08,0,0,0-.12,1.6,9.41,9.41,0,0,0,.12,1.64,2.1,2.1,0,0,0,.51,1.07,1.52,1.52,0,0,0,1.13.4,1.51,1.51,0,0,0,1.11-.4,2,2,0,0,0,.51-1.07,9.41,9.41,0,0,0,.12-1.64A9.08,9.08,0,0,0,141.2,53.38Z"/><path class="cls-4" d="M147.39,57.84a1.61,1.61,0,0,0,1.07.33,1.45,1.45,0,0,0,1.33-.7,4.71,4.71,0,0,0,.41-2.38,1.71,1.71,0,0,1-.76.77,2.6,2.6,0,0,1-1.19.27,2.77,2.77,0,0,1-1.3-.3,2.13,2.13,0,0,1-.89-.87,2.75,2.75,0,0,1-.33-1.39,2.6,2.6,0,0,1,.68-1.87,2.46,2.46,0,0,1,1.91-.71,2.32,2.32,0,0,1,2.13,1,5.67,5.67,0,0,1,.61,3,8.93,8.93,0,0,1-.24,2.26,2.55,2.55,0,0,1-.82,1.35,2.5,2.5,0,0,1-1.6.47A2.25,2.25,0,0,1,146,56.88h.91A1.63,1.63,0,0,0,147.39,57.84Zm2.22-3a1.63,1.63,0,0,0,.47-1.23,1.88,1.88,0,0,0-.46-1.31,1.65,1.65,0,0,0-1.28-.5,1.57,1.57,0,0,0-1.21.48,1.77,1.77,0,0,0-.45,1.26,1.82,1.82,0,0,0,.44,1.27,1.69,1.69,0,0,0,1.3.48A1.65,1.65,0,0,0,149.61,54.85Z"/></svg>