<svg id="Layer_1" data-name="Layer 1" xmlns="http://www.w3.org/2000/svg" viewBox="0 0 144.2 65"><defs><style>.cls-1{fill:#737373;}.cls-2{fill:#00b9d7;}.cls-3{fill:#fff;}</style></defs><path class="cls-1" d="M5.68,63.47a5.57,5.57,0,0,1-2.13-2.15,6.46,6.46,0,0,1,0-6.19A5.57,5.57,0,0,1,5.68,53a6,6,0,0,1,3-.77,6,6,0,0,1,3,.77,5.52,5.52,0,0,1,2.12,2.14,6.57,6.57,0,0,1,0,6.21,5.52,5.52,0,0,1-2.12,2.14,6,6,0,0,1-3,.77A6,6,0,0,1,5.68,63.47Zm5.21-1.14a4,4,0,0,0,1.56-1.64,5.73,5.73,0,0,0,0-4.94,4.13,4.13,0,0,0-1.55-1.63,4.35,4.35,0,0,0-2.23-.57,4.38,4.38,0,0,0-2.23.57A4,4,0,0,0,4.9,55.75a5.64,5.64,0,0,0,0,4.94,4,4,0,0,0,1.55,1.64,4.37,4.37,0,0,0,2.22.57A4.37,4.37,0,0,0,10.89,62.33Z"/><path class="cls-1" d="M18,57a4.13,4.13,0,0,1,1.59-1.67,4.62,4.62,0,0,1,2.34-.59,4.55,4.55,0,0,1,2.81.83,3.86,3.86,0,0,1,1.46,2.3H24.51a2.42,2.42,0,0,0-.92-1.34,2.89,2.89,0,0,0-1.7-.49,2.72,2.72,0,0,0-2.13.91A3.68,3.68,0,0,0,19,59.47a3.77,3.77,0,0,0,.81,2.59,2.72,2.72,0,0,0,2.13.91,2.9,2.9,0,0,0,1.69-.47,2.44,2.44,0,0,0,.93-1.35h1.65a4.06,4.06,0,0,1-1.48,2.27,4.43,4.43,0,0,1-2.79.85,4.62,4.62,0,0,1-2.34-.59A4.13,4.13,0,0,1,18,62a5.38,5.38,0,0,1-.58-2.54A5.24,5.24,0,0,1,18,57Z"/><path class="cls-1" d="M31.43,56.13v5.46a1.3,1.3,0,0,0,.29.95,1.44,1.44,0,0,0,1,.28h1.13v1.3H32.46a2.77,2.77,0,0,1-1.92-.59,2.53,2.53,0,0,1-.64-1.94V56.13H28.7V54.86h1.2V52.53h1.53v2.33h2.42v1.27Z"/><path class="cls-1" d="M38.74,63.68A4.26,4.26,0,0,1,37.08,62a5.17,5.17,0,0,1-.6-2.53A5,5,0,0,1,37.1,57a4.15,4.15,0,0,1,1.68-1.67,5.1,5.1,0,0,1,4.76,0A4.19,4.19,0,0,1,45.22,57a5.36,5.36,0,0,1,0,5,4.45,4.45,0,0,1-1.71,1.68,5,5,0,0,1-2.4.59A4.74,4.74,0,0,1,38.74,63.68Zm3.9-1.15a3,3,0,0,0,1.18-1.16,3.74,3.74,0,0,0,.45-1.9,3.83,3.83,0,0,0-.44-1.89,3,3,0,0,0-1.15-1.15,3.14,3.14,0,0,0-1.54-.38,3.09,3.09,0,0,0-1.54.38,2.85,2.85,0,0,0-1.13,1.15,4.51,4.51,0,0,0,0,3.8,2.69,2.69,0,0,0,1.1,1.16,3.14,3.14,0,0,0,1.52.38A3.21,3.21,0,0,0,42.64,62.53Z"/><path class="cls-1" d="M52.13,55.24a4.1,4.1,0,0,1,2.08-.53,4.39,4.39,0,0,1,2.25.59A4.29,4.29,0,0,1,58,57a5.2,5.2,0,0,1,.57,2.49A5.38,5.38,0,0,1,58,62a4.26,4.26,0,0,1-1.58,1.7,4.21,4.21,0,0,1-2.24.61,4.09,4.09,0,0,1-2.1-.52,3.57,3.57,0,0,1-1.36-1.34v1.71H49.21V51.62h1.54v5A3.66,3.66,0,0,1,52.13,55.24Zm4.48,2.39a3,3,0,0,0-1.14-1.18,3.17,3.17,0,0,0-1.58-.4,3,3,0,0,0-1.56.41,3.09,3.09,0,0,0-1.15,1.2,3.67,3.67,0,0,0-.43,1.81,3.76,3.76,0,0,0,.43,1.84,3.09,3.09,0,0,0,1.15,1.2,3.13,3.13,0,0,0,1.56.41,3.18,3.18,0,0,0,1.58-.41,3,3,0,0,0,1.14-1.2A3.89,3.89,0,0,0,57,59.46,3.8,3.8,0,0,0,56.61,57.63Z"/><path class="cls-1" d="M70.37,60.07H63A2.92,2.92,0,0,0,66,63a2.83,2.83,0,0,0,1.66-.46,2.45,2.45,0,0,0,.94-1.25h1.66a4,4,0,0,1-1.49,2.17,4.47,4.47,0,0,1-2.77.84,4.75,4.75,0,0,1-2.36-.59A4.23,4.23,0,0,1,62,62a5.17,5.17,0,0,1-.6-2.53A5.31,5.31,0,0,1,62,57a4,4,0,0,1,1.61-1.66A4.78,4.78,0,0,1,66,54.71a4.55,4.55,0,0,1,2.33.58,3.89,3.89,0,0,1,1.56,1.58,4.6,4.6,0,0,1,.55,2.27C70.42,59.43,70.4,59.74,70.37,60.07ZM68.45,57.3a2.58,2.58,0,0,0-1.06-1A3.28,3.28,0,0,0,65.91,56a2.82,2.82,0,0,0-2,.75A3,3,0,0,0,63,58.82h5.84A3,3,0,0,0,68.45,57.3Z"/><path class="cls-1" d="M76.49,55.14a3.49,3.49,0,0,1,1.83-.44v1.58h-.4c-1.72,0-2.59.94-2.59,2.81v5H73.8V54.86h1.53v1.51A2.93,2.93,0,0,1,76.49,55.14Z"/><path class="cls-1" d="M88,53.35a4.16,4.16,0,0,1,6.6,0,9.1,9.1,0,0,1,1,4.54,9.23,9.23,0,0,1-1,4.59,4.14,4.14,0,0,1-6.6,0,9.23,9.23,0,0,1-1-4.59A9.1,9.1,0,0,1,88,53.35Zm5.83,2A3.19,3.19,0,0,0,93,53.75a2.75,2.75,0,0,0-3.48,0,3.19,3.19,0,0,0-.79,1.65,13.47,13.47,0,0,0-.2,2.49,14,14,0,0,0,.2,2.55,3.16,3.16,0,0,0,.79,1.65,2.72,2.72,0,0,0,3.48,0,3.16,3.16,0,0,0,.79-1.65,14,14,0,0,0,.2-2.55A13.47,13.47,0,0,0,93.83,55.4Z"/><path class="cls-1" d="M102.18,60.06a13.28,13.28,0,0,0,2-2.32,4.13,4.13,0,0,0,.84-2.37,2.63,2.63,0,0,0-.53-1.73,2.14,2.14,0,0,0-1.72-.63,2.28,2.28,0,0,0-1.78.71,3,3,0,0,0-.68,1.92H98.87A4.08,4.08,0,0,1,100,52.72a4.37,4.37,0,0,1,5.55-.07,3.47,3.47,0,0,1,1,2.65,5,5,0,0,1-.84,2.73,11.78,11.78,0,0,1-1.9,2.33c-.71.67-1.61,1.45-2.71,2.34h5.8V64H98.82V62.89C100.25,61.74,101.37,60.79,102.18,60.06Z"/><path class="cls-1" d="M116.74,57.28v1.3H110v-1.3Z"/><path class="cls-1" d="M121.67,53.35a4.16,4.16,0,0,1,6.6,0,9.1,9.1,0,0,1,.95,4.54,9.23,9.23,0,0,1-.95,4.59,4.14,4.14,0,0,1-6.6,0,9.23,9.23,0,0,1-1-4.59A9.1,9.1,0,0,1,121.67,53.35Zm5.83,2a3.19,3.19,0,0,0-.79-1.65,2.75,2.75,0,0,0-3.48,0,3.19,3.19,0,0,0-.79,1.65,13.47,13.47,0,0,0-.2,2.49,14,14,0,0,0,.2,2.55,3.16,3.16,0,0,0,.79,1.65,2.72,2.72,0,0,0,3.48,0,3.16,3.16,0,0,0,.79-1.65,14,14,0,0,0,.2-2.55A13.47,13.47,0,0,0,127.5,55.4Z"/><path class="cls-1" d="M133.84,52.55a4.91,4.91,0,0,1,4.79-.46,3,3,0,0,1,1.27,1.12,3.09,3.09,0,0,1,.43,1.6,2.84,2.84,0,0,1-.6,1.81,2.69,2.69,0,0,1-1.57,1v.08a3.07,3.07,0,0,1,1.74,1.07,3.19,3.19,0,0,1,.65,2.08,3.48,3.48,0,0,1-.44,1.73,3.09,3.09,0,0,1-1.32,1.2,4.6,4.6,0,0,1-2.11.44,4.54,4.54,0,0,1-2.94-.93,3.67,3.67,0,0,1-1.28-2.66h1.48a2.58,2.58,0,0,0,.83,1.65,2.69,2.69,0,0,0,1.89.64,2.44,2.44,0,0,0,1.8-.61,2.18,2.18,0,0,0,.62-1.6,2,2,0,0,0-.85-1.82,4.59,4.59,0,0,0-2.55-.56h-.39V57h.41a4.67,4.67,0,0,0,2.35-.52,1.69,1.69,0,0,0,.79-1.54,1.86,1.86,0,0,0-.58-1.44,2.38,2.38,0,0,0-1.67-.54,2.51,2.51,0,0,0-1.68.54,2.18,2.18,0,0,0-.76,1.45h-1.51A3.33,3.33,0,0,1,133.84,52.55Z"/><path class="cls-2" d="M42.14,12s6.28-1.25,10.41-.06,6.46,2.79,8,5.27l-.27-2L66,11a19.29,19.29,0,0,0-4.72-4.68V4.06A20.34,20.34,0,0,0,48.08.65l-1.23,2a10.75,10.75,0,0,0-6.42,2.1l2.72,5.8Z"/><path class="cls-3" d="M45.8,10.25A10.31,10.31,0,0,1,58.58,13.2a18.24,18.24,0,0,0-6.07-2.87A18,18,0,0,0,45.8,10.25Z"/><path class="cls-2" d="M3.24,13.42c7.51,6.87,19.45,5.33,28.06,3.11,9.53-3.48,22.8-6.18,29.81,3.3L59.2,21.26c-4.6-6.23-12.93-6.21-19.83-4.5A68.83,68.83,0,0,0,32.07,19a53.9,53.9,0,0,1-15.63,2.07,23.76,23.76,0,0,1-15-5.56l1.85-2.08Z"/><rect class="cls-3" x="52.14" y="4.41" width="3.88" height="1.39" transform="translate(36.64 56.54) rotate(-76.67)"/><rect class="cls-3" x="53.38" y="3.06" width="1.39" height="4.07" transform="translate(36.63 56.54) rotate(-76.66)"/><path class="cls-2" d="M20,42.06H16.26L7.82,29.3V42.06H4.09V23.44H7.82l8.44,12.79V19.49H20Z"/><path class="cls-2" d="M36.62,29.06a4.37,4.37,0,0,0-1.76-1.78,5.36,5.36,0,0,0-2.61-.62,5.68,5.68,0,0,0-2.93.75,5.21,5.21,0,0,0-2,2.13,6.86,6.86,0,0,0-.72,3.2A7,7,0,0,0,27.33,36a5.24,5.24,0,0,0,2,2.13,6,6,0,0,0,3,.75,5.25,5.25,0,0,0,3.49-1.14,5.38,5.38,0,0,0,1.79-3.15h-6.4V31.73H41.36V35a8.72,8.72,0,0,1-1.6,3.59,9,9,0,0,1-3.15,2.65,9.27,9.27,0,0,1-4.33,1A9.8,9.8,0,0,1,27.41,41,8.9,8.9,0,0,1,24,37.64a9.72,9.72,0,0,1-1.23-4.9A9.82,9.82,0,0,1,24,27.82a8.93,8.93,0,0,1,3.41-3.38,9.74,9.74,0,0,1,4.84-1.21,9.66,9.66,0,0,1,5.46,1.53,7.8,7.8,0,0,1,3.2,4.3Z"/><path class="cls-2" d="M44.47,27.82a8.85,8.85,0,0,1,3.38-3.38,9.57,9.57,0,0,1,4.81-1.21,9.41,9.41,0,0,1,5.46,1.6,8.35,8.35,0,0,1,3.28,4.42H57.11a4.46,4.46,0,0,0-1.8-2,5.33,5.33,0,0,0-2.68-.67,5.56,5.56,0,0,0-2.89.76,5.2,5.2,0,0,0-2,2.15,7.08,7.08,0,0,0-.71,3.25A7.15,7.15,0,0,0,47.77,36a5.14,5.14,0,0,0,2,2.15,5.47,5.47,0,0,0,2.89.76,5.14,5.14,0,0,0,2.68-.68,4.54,4.54,0,0,0,1.8-2H61.4a8.31,8.31,0,0,1-3.27,4.44,9.46,9.46,0,0,1-5.47,1.58A9.57,9.57,0,0,1,47.85,41a8.82,8.82,0,0,1-3.38-3.37,9.62,9.62,0,0,1-1.24-4.9A9.72,9.72,0,0,1,44.47,27.82Z"/><path class="cls-2" d="M75.94,31v3.14H64.65V31Z"/><path class="cls-2" d="M80.87,37.85Q83.44,35.72,85,34.3a16.37,16.37,0,0,0,2.53-3,5.51,5.51,0,0,0,1-3,3.21,3.21,0,0,0-.64-2.13,2.39,2.39,0,0,0-2-.78,2.47,2.47,0,0,0-2,.9,3.9,3.9,0,0,0-.75,2.44H79.46a6.55,6.55,0,0,1,1.91-4.85,6.49,6.49,0,0,1,4.57-1.66,6.33,6.33,0,0,1,4.66,1.62,5.72,5.72,0,0,1,1.62,4.25,7.68,7.68,0,0,1-1.12,4,15.68,15.68,0,0,1-2.55,3.29c-1,.93-2.22,2-3.76,3.37h7.86V41.8H79.49V39Z"/><path class="cls-2" d="M96.66,24.88q1.66-2.61,5.53-2.61c2.57,0,4.42.87,5.53,2.61a13.37,13.37,0,0,1,1.66,7.22,13.56,13.56,0,0,1-1.66,7.27c-1.11,1.76-3,2.64-5.53,2.64s-4.42-.88-5.53-2.64A13.56,13.56,0,0,1,95,32.1,13.37,13.37,0,0,1,96.66,24.88Zm8.79,3.9a4.58,4.58,0,0,0-1-2.2,2.9,2.9,0,0,0-2.25-.85,2.87,2.87,0,0,0-2.25.85,4.5,4.5,0,0,0-1,2.2,18.26,18.26,0,0,0-.25,3.32,20.26,20.26,0,0,0,.24,3.4,4.32,4.32,0,0,0,1,2.21,3.47,3.47,0,0,0,4.53,0,4.24,4.24,0,0,0,1-2.21,20.26,20.26,0,0,0,.24-3.4A18.26,18.26,0,0,0,105.45,28.78Z"/><path class="cls-2" d="M113.38,37.85q2.55-2.13,4.07-3.55a16,16,0,0,0,2.53-3,5.52,5.52,0,0,0,1-3,3.26,3.26,0,0,0-.64-2.13,2.41,2.41,0,0,0-2-.78,2.49,2.49,0,0,0-2.06.9,4,4,0,0,0-.74,2.44H112a6.59,6.59,0,0,1,1.91-4.85,6.5,6.5,0,0,1,4.57-1.66,6.32,6.32,0,0,1,4.66,1.62,5.69,5.69,0,0,1,1.63,4.25,7.78,7.78,0,0,1-1.12,4,16.05,16.05,0,0,1-2.56,3.29q-1.44,1.39-3.76,3.37h7.86V41.8H112V39Z"/><path class="cls-2" d="M140.55,25.86h-8.63v4.56a4,4,0,0,1,1.6-1.13,5.66,5.66,0,0,1,2.21-.44,6.06,6.06,0,0,1,3.49.93,5.37,5.37,0,0,1,2,2.39,7.83,7.83,0,0,1,.61,3.1,6.94,6.94,0,0,1-1.74,4.93,6.48,6.48,0,0,1-5,1.86,7.28,7.28,0,0,1-4.85-1.52,5.67,5.67,0,0,1-2.05-4h3.62a2.86,2.86,0,0,0,1.08,1.7,3.43,3.43,0,0,0,2.15.64,2.86,2.86,0,0,0,2.37-1,4,4,0,0,0,.8-2.61,3.52,3.52,0,0,0-.81-2.51,3.13,3.13,0,0,0-2.39-.87A2.93,2.93,0,0,0,132.08,34h-3.57V22.59h12Z"/><rect class="cls-1" x="3.43" y="46.61" width="136.45" height="0.74"/></svg>