<svg id="Layer_1" data-name="Layer 1" xmlns="http://www.w3.org/2000/svg" viewBox="0 0 141.53 65.36"><defs><style>.cls-1{fill:#737373;}.cls-2{fill:#00b9d7;}.cls-3{fill:#fff;}</style></defs><path class="cls-1" d="M4.29,59.9a5.57,5.57,0,0,1-2.14-2.14,6.55,6.55,0,0,1,0-6.2,5.64,5.64,0,0,1,2.14-2.14,5.94,5.94,0,0,1,3-.77,6,6,0,0,1,3,.77,5.59,5.59,0,0,1,2.13,2.13,6.59,6.59,0,0,1,0,6.22,5.59,5.59,0,0,1-2.13,2.13,5.88,5.88,0,0,1-3,.77A5.84,5.84,0,0,1,4.29,59.9ZM9.5,58.76a4,4,0,0,0,1.55-1.63,5.64,5.64,0,0,0,0-4.94A4,4,0,0,0,9.5,50.56,4.32,4.32,0,0,0,7.28,50a4.33,4.33,0,0,0-2.23.58A4,4,0,0,0,3.5,52.19a5.73,5.73,0,0,0,0,4.94,4,4,0,0,0,1.56,1.63,4.23,4.23,0,0,0,2.22.58A4.28,4.28,0,0,0,9.5,58.76Z"/><path class="cls-1" d="M16.56,53.4a4.19,4.19,0,0,1,1.6-1.66,4.62,4.62,0,0,1,2.34-.59,4.53,4.53,0,0,1,2.81.83,3.89,3.89,0,0,1,1.46,2.29H23.11a2.33,2.33,0,0,0-.92-1.33,2.79,2.79,0,0,0-1.69-.49,2.73,2.73,0,0,0-2.13.9,4.48,4.48,0,0,0,0,5.14,2.71,2.71,0,0,0,2.13.92,2.86,2.86,0,0,0,1.69-.48,2.31,2.31,0,0,0,.92-1.35h1.66a4,4,0,0,1-1.49,2.27,4.43,4.43,0,0,1-2.78.86,4.62,4.62,0,0,1-2.34-.59,4.25,4.25,0,0,1-1.6-1.68A5.34,5.34,0,0,1,16,55.91,5.28,5.28,0,0,1,16.56,53.4Z"/><path class="cls-1" d="M30,52.57V58a1.33,1.33,0,0,0,.28,1,1.48,1.48,0,0,0,1,.27h1.13v1.3H31.07A2.74,2.74,0,0,1,29.14,60,2.52,2.52,0,0,1,28.5,58V52.57H27.3V51.3h1.2V49H30V51.3h2.41v1.27Z"/><path class="cls-1" d="M37.34,60.12a4.3,4.3,0,0,1-1.65-1.68,5.17,5.17,0,0,1-.6-2.53,5,5,0,0,1,.61-2.51,4.28,4.28,0,0,1,1.68-1.67,4.88,4.88,0,0,1,2.38-.58,4.82,4.82,0,0,1,2.38.58,4.26,4.26,0,0,1,1.68,1.66,5.41,5.41,0,0,1,0,5,4.48,4.48,0,0,1-1.72,1.68,5,5,0,0,1-2.39.59A4.78,4.78,0,0,1,37.34,60.12ZM41.25,59a3,3,0,0,0,1.17-1.17,3.72,3.72,0,0,0,.45-1.89A3.83,3.83,0,0,0,42.43,54a2.86,2.86,0,0,0-1.15-1.16,3.31,3.31,0,0,0-3.08,0A2.79,2.79,0,0,0,37.08,54a4.56,4.56,0,0,0,0,3.8A2.77,2.77,0,0,0,38.18,59a3.12,3.12,0,0,0,1.52.38A3.21,3.21,0,0,0,41.25,59Z"/><path class="cls-1" d="M50.74,51.67a4.09,4.09,0,0,1,2.08-.52,4.33,4.33,0,0,1,2.24.59,4.12,4.12,0,0,1,1.57,1.66,5.14,5.14,0,0,1,.58,2.49,5.21,5.21,0,0,1-.58,2.5,4.21,4.21,0,0,1-3.81,2.32,4.16,4.16,0,0,1-2.11-.53,3.62,3.62,0,0,1-1.36-1.33v1.7H47.82V48.06h1.53v5A3.68,3.68,0,0,1,50.74,51.67Zm4.47,2.4a2.88,2.88,0,0,0-1.14-1.18,3.12,3.12,0,0,0-1.57-.41,3.05,3.05,0,0,0-1.57.42,2.94,2.94,0,0,0-1.14,1.2,3.65,3.65,0,0,0-.44,1.81,3.7,3.7,0,0,0,.44,1.83,2.94,2.94,0,0,0,1.14,1.2,3.14,3.14,0,0,0,3.14,0,2.88,2.88,0,0,0,1.14-1.2,3.75,3.75,0,0,0,.43-1.85A3.68,3.68,0,0,0,55.21,54.07Z"/><path class="cls-1" d="M69,56.5h-7.4a3,3,0,0,0,.94,2.14,3,3,0,0,0,2.07.77,2.85,2.85,0,0,0,1.66-.47,2.48,2.48,0,0,0,.94-1.24h1.65a4,4,0,0,1-1.49,2.17,4.44,4.44,0,0,1-2.76.84,4.72,4.72,0,0,1-2.36-.59,4.25,4.25,0,0,1-1.63-1.68A5.28,5.28,0,0,1,60,55.91a5.35,5.35,0,0,1,.57-2.52,4,4,0,0,1,1.62-1.66,4.75,4.75,0,0,1,2.39-.58,4.7,4.7,0,0,1,2.33.57,4.08,4.08,0,0,1,1.56,1.58A4.73,4.73,0,0,1,69,55.57C69,55.87,69,56.18,69,56.5Zm-1.93-2.76a2.56,2.56,0,0,0-1-1,3.31,3.31,0,0,0-1.48-.33,2.89,2.89,0,0,0-2,.74,3.06,3.06,0,0,0-.93,2.06h5.84A2.83,2.83,0,0,0,67.05,53.74Z"/><path class="cls-1" d="M75.1,51.57a3.59,3.59,0,0,1,1.83-.44v1.59h-.41c-1.72,0-2.58.93-2.58,2.8v5H72.4V51.3h1.54v1.5A3,3,0,0,1,75.1,51.57Z"/><path class="cls-1" d="M86.6,49.79a4.17,4.17,0,0,1,6.61,0,9.1,9.1,0,0,1,.94,4.53,9.31,9.31,0,0,1-.94,4.6,4.17,4.17,0,0,1-6.61,0,9.31,9.31,0,0,1-.94-4.6A9.1,9.1,0,0,1,86.6,49.79Zm5.84,2a3.13,3.13,0,0,0-.8-1.64,2.7,2.7,0,0,0-3.47,0,3.13,3.13,0,0,0-.8,1.64,13.56,13.56,0,0,0-.19,2.49,14,14,0,0,0,.19,2.55,3.2,3.2,0,0,0,.8,1.66,2.74,2.74,0,0,0,3.47,0,3.2,3.2,0,0,0,.8-1.66,14,14,0,0,0,.19-2.55A13.56,13.56,0,0,0,92.44,51.83Z"/><path class="cls-1" d="M100.79,56.49a13.28,13.28,0,0,0,2-2.31,4.13,4.13,0,0,0,.83-2.37,2.58,2.58,0,0,0-.53-1.73,2.08,2.08,0,0,0-1.71-.64,2.23,2.23,0,0,0-1.78.72A3.05,3.05,0,0,0,99,52.08H97.48a4,4,0,0,1,1.15-2.92,4.35,4.35,0,0,1,5.54-.07,3.46,3.46,0,0,1,1,2.65,5.06,5.06,0,0,1-.83,2.73,12.15,12.15,0,0,1-1.9,2.33c-.71.67-1.62,1.45-2.72,2.34h5.81v1.28H97.43v-1.1Q99.57,57.6,100.79,56.49Z"/><path class="cls-1" d="M115.34,53.72V55h-6.73v-1.3Z"/><path class="cls-1" d="M120.27,49.79a4.17,4.17,0,0,1,6.61,0,9.1,9.1,0,0,1,.94,4.53,9.31,9.31,0,0,1-.94,4.6,4.17,4.17,0,0,1-6.61,0,9.31,9.31,0,0,1-.94-4.6A9.1,9.1,0,0,1,120.27,49.79Zm5.84,2a3.13,3.13,0,0,0-.8-1.64,2.27,2.27,0,0,0-1.73-.63,2.31,2.31,0,0,0-1.75.63,3.2,3.2,0,0,0-.79,1.64,13.56,13.56,0,0,0-.19,2.49,14,14,0,0,0,.19,2.55,3.27,3.27,0,0,0,.79,1.66,2.35,2.35,0,0,0,1.75.62,2.3,2.3,0,0,0,1.73-.62,3.2,3.2,0,0,0,.8-1.66,14,14,0,0,0,.19-2.55A13.56,13.56,0,0,0,126.11,51.83Z"/><path class="cls-1" d="M132.45,49a4.27,4.27,0,0,1,2.8-.88,4.45,4.45,0,0,1,2,.41,2.93,2.93,0,0,1,1.7,2.73,2.84,2.84,0,0,1-.6,1.81,2.75,2.75,0,0,1-1.56,1v.08a3,3,0,0,1,2.38,3.14,3.45,3.45,0,0,1-.44,1.73,2.94,2.94,0,0,1-1.32,1.21,4.67,4.67,0,0,1-2.11.44,4.44,4.44,0,0,1-2.93-.94A3.61,3.61,0,0,1,131.06,57h1.49a2.53,2.53,0,0,0,.83,1.66,2.74,2.74,0,0,0,1.89.64,2.46,2.46,0,0,0,1.8-.62,2.15,2.15,0,0,0,.61-1.59,2,2,0,0,0-.84-1.83,4.74,4.74,0,0,0-2.55-.55h-.39V53.46h.4a4.58,4.58,0,0,0,2.35-.51,1.7,1.7,0,0,0,.8-1.55,1.86,1.86,0,0,0-.59-1.43,2.35,2.35,0,0,0-1.66-.54,2.54,2.54,0,0,0-1.69.54,2.18,2.18,0,0,0-.76,1.45h-1.5A3.29,3.29,0,0,1,132.45,49Z"/><path class="cls-2" d="M35.88,12.84s5.41-1.09,9-.06,5.58,2.41,6.89,4.54l-.24-1.69L56.4,12a16.56,16.56,0,0,0-4.07-4V6A17.52,17.52,0,0,0,41,3L39.94,4.78a9.24,9.24,0,0,0-5.53,1.81l2.33,5Z"/><path class="cls-3" d="M39,11.3a8.68,8.68,0,0,1,11,2.54,17,17,0,0,0-5.25-2.41A16.61,16.61,0,0,0,39,11.3Z"/><path class="cls-2" d="M2.36,14C8.83,20,19.12,18.62,26.54,16.71c8.21-3,19.65-5.33,25.68,2.85l-1.64,1.23c-4-5.37-11.14-5.35-17.09-3.88a59.81,59.81,0,0,0-6.29,1.92,46.75,46.75,0,0,1-13.47,1.79,20.45,20.45,0,0,1-13-4.8L2.36,14Z"/><rect class="cls-3" x="44.49" y="6.17" width="3.34" height="1.39" transform="translate(28.84 50.2) rotate(-76.66)"/><rect class="cls-3" x="45.47" y="5.11" width="1.39" height="3.51" transform="translate(28.83 50.2) rotate(-76.66)"/><path class="cls-2" d="M16.8,38.71H13.58l-7.28-11v11H3.09v-16H6.3l7.28,11V19.26H16.8Z"/><rect class="cls-1" x="2.04" y="43.05" width="136.45" height="0.74"/><path class="cls-2" d="M40.64,23.56l-4,15.36H32.11L29.66,28.81,27.12,38.92H22.59L18.7,23.56h4l2.21,11.18,2.74-11.18h4.11l2.63,11.18,2.23-11.18Z"/><path class="cls-2" d="M52.72,28.41a2.74,2.74,0,0,0-1.19-1.17,3.92,3.92,0,0,0-1.83-.4A3.78,3.78,0,0,0,46.79,28a4.53,4.53,0,0,0-1.09,3.18,4.58,4.58,0,0,0,1.15,3.32A4.19,4.19,0,0,0,50,35.72a3.79,3.79,0,0,0,2.33-.7,4,4,0,0,0,1.39-2H49V30.25h8.14v3.48a7.44,7.44,0,0,1-1.41,2.6,7.27,7.27,0,0,1-2.53,2,7.75,7.75,0,0,1-3.46.75,8.19,8.19,0,0,1-4-1,7.05,7.05,0,0,1-2.78-2.77,8.06,8.06,0,0,1-1-4,8.08,8.08,0,0,1,1-4.05,7,7,0,0,1,2.76-2.78,8.11,8.11,0,0,1,4.05-1,7.86,7.86,0,0,1,4.65,1.34,6.32,6.32,0,0,1,2.51,3.69Z"/><path class="cls-2" d="M59.55,27.16a7,7,0,0,1,2.75-2.78,7.88,7.88,0,0,1,4-1A7.6,7.6,0,0,1,71,24.83a6.93,6.93,0,0,1,2.61,3.93H69.46a3.26,3.26,0,0,0-1.3-1.46,3.85,3.85,0,0,0-4.72.7,4.66,4.66,0,0,0-1.07,3.21,4.67,4.67,0,0,0,1.07,3.22,3.89,3.89,0,0,0,4.72.7,3.26,3.26,0,0,0,1.3-1.46h4.12A6.87,6.87,0,0,1,71,37.59,7.66,7.66,0,0,1,66.29,39a8,8,0,0,1-4-1,7,7,0,0,1-2.75-2.77,8.78,8.78,0,0,1,0-8.1Z"/><path class="cls-2" d="M85.28,29.68v3.11H75.65V29.68Z"/><path class="cls-2" d="M88.74,35.37c1.43-1.18,2.55-2.15,3.38-2.91a14.32,14.32,0,0,0,2.09-2.38,4.29,4.29,0,0,0,.85-2.43,2.16,2.16,0,0,0-.41-1.4,1.72,1.72,0,0,0-2.55.12,2.81,2.81,0,0,0-.47,1.76H88A6.25,6.25,0,0,1,88.81,25a4.72,4.72,0,0,1,2-1.84,6.32,6.32,0,0,1,2.74-.59,5.3,5.3,0,0,1,3.93,1.34,4.74,4.74,0,0,1,1.32,3.48,6.83,6.83,0,0,1-1.59,4.34,23.87,23.87,0,0,1-4.07,3.91H99v3h-11V35.92C88.56,35.53,88.78,35.34,88.74,35.37Z"/><path class="cls-2" d="M102.14,24.78a6.18,6.18,0,0,1,9.39,0A10.53,10.53,0,0,1,113,30.71a10.59,10.59,0,0,1-1.45,6,6.16,6.16,0,0,1-9.39,0,10.59,10.59,0,0,1-1.45-6A10.53,10.53,0,0,1,102.14,24.78Zm6.69,2.53a2.27,2.27,0,0,0-4,0,9.44,9.44,0,0,0-.48,3.4,13.92,13.92,0,0,0,.18,2.46,3.08,3.08,0,0,0,.71,1.58,2,2,0,0,0,1.58.6,2,2,0,0,0,1.59-.6,3.16,3.16,0,0,0,.71-1.58,13.92,13.92,0,0,0,.18-2.46A9.44,9.44,0,0,0,108.83,27.31Z"/><path class="cls-2" d="M115.5,35.37c1.43-1.18,2.55-2.15,3.38-2.91A14.32,14.32,0,0,0,121,30.08a4.29,4.29,0,0,0,.85-2.43,2.16,2.16,0,0,0-.41-1.4,1.72,1.72,0,0,0-2.55.12,2.81,2.81,0,0,0-.47,1.76h-3.61a6.14,6.14,0,0,1,.8-3.11,4.64,4.64,0,0,1,2-1.84,6.32,6.32,0,0,1,2.74-.59,5.3,5.3,0,0,1,3.93,1.34,4.74,4.74,0,0,1,1.32,3.48A6.83,6.83,0,0,1,124,31.75a23.5,23.5,0,0,1-4.07,3.91h5.9v3h-11V35.92C115.32,35.53,115.54,35.34,115.5,35.37Z"/><path class="cls-2" d="M138.69,26.2h-6.82v3a3.14,3.14,0,0,1,1.22-.78,4.56,4.56,0,0,1,1.71-.31,4.74,4.74,0,0,1,2.72.74,4.45,4.45,0,0,1,1.59,1.93,6.57,6.57,0,0,1,.5,2.56,5.61,5.61,0,0,1-1.44,4.06,5.4,5.4,0,0,1-4.07,1.5,7.14,7.14,0,0,1-3-.6,4.69,4.69,0,0,1-2-1.68,4.86,4.86,0,0,1-.76-2.47H132a2,2,0,0,0,.64,1.13,2,2,0,0,0,1.38.44,1.81,1.81,0,0,0,1.53-.65,2.84,2.84,0,0,0,.5-1.75,2.32,2.32,0,0,0-.52-1.64,2.31,2.31,0,0,0-2.76-.21,1.74,1.74,0,0,0-.64.95h-3.61V22.92h10.22Z"/></svg>